<?xml version="1.0" encoding="utf-8" standalone="no"?><!DOCTYPE svg PUBLIC "-//W3C//DTD SVG 1.1//EN" "http://www.w3.org/Graphics/SVG/1.1/DTD/svg11.dtd">
<svg preserveAspectRatio="xMinYMin meet" width="100%" height="100%" viewBox="0 0 658.000 597.000"  version="1.1" xmlns="http://www.w3.org/2000/svg" xmlns:xlink="http://www.w3.org/1999/xlink">
  <desc>Matlab Figure Converted by PLOT2SVG written by Juerg Schwizer</desc>
  <g id="topgroup">
  <rect x="0" y="0" width="658.000" height="597.000" fill="#ffffff" stroke="none" />
<image x="21.176" y="427.588" width="254.118" height="153.529" image-rendering="optimizeSpeed" xlink:href="logo001.png" />
<image x="423.529" y="427.588" width="217.059" height="153.529" image-rendering="optimizeSpeed" xlink:href="logo002.png" />
<image x="513.529" y="369.353" width="127.059" height="47.647" image-rendering="optimizeSpeed" xlink:href="logo003.png" />
<image x="15.882" y="9.353" width="624.706" height="31.765" image-rendering="optimizeSpeed" xlink:href="logo004.png" />
<image x="513.529" y="51.706" width="127.059" height="307.059" image-rendering="optimizeSpeed" xlink:href="logo005.png" />
<image x="285.882" y="427.368" width="127.059" height="153.750" image-rendering="optimizeSpeed" xlink:href="logo006.png" />
<image x="21.176" y="14.500" width="614.118" height="23.750" image-rendering="optimizeSpeed" xlink:href="logo007.png" />
<image x="529.411" y="69.708" width="97.411" height="30.705" image-rendering="optimizeSpeed" xlink:href="logo008.png" />
<image x="529.411" y="109.943" width="97.411" height="30.705" image-rendering="optimizeSpeed" xlink:href="logo009.png" />
<image x="529.412" y="149.118" width="97.412" height="31.765" image-rendering="optimizeSpeed" xlink:href="logo010.png" />
<image x="529.411" y="189.354" width="97.411" height="31.764" image-rendering="optimizeSpeed" xlink:href="logo011.png" />
<image x="529.411" y="229.590" width="97.411" height="31.764" image-rendering="optimizeSpeed" xlink:href="logo012.png" />
<image x="529.411" y="270.884" width="97.411" height="31.764" image-rendering="optimizeSpeed" xlink:href="logo013.png" />
<image x="529.411" y="311.119" width="97.411" height="31.764" image-rendering="optimizeSpeed" xlink:href="logo014.png" />
  <g id ="ID000000">
  <clipPath id="ID000001">
    <rect x="47.500" y="113.023" width="356.250" height="226.705"/>
  </clipPath>
      <polygon fill="#ffffff" fill-opacity="1.00" stroke="none" stroke-width="0.5pt" stroke-opacity="1.00" stroke-dasharray="none" points="47.500,339.727 403.750,339.727 403.750,113.023 47.500,113.023 "/>
      <polygon fill="#ffffff" fill-opacity="1.00" stroke="none" stroke-width="0.5pt" stroke-opacity="1.00" stroke-dasharray="none" points="47.500,113.023 403.750,113.023 403.750,113.023 47.500,113.023 "/>
      <polygon fill="#ffffff" fill-opacity="1.00" stroke="none" stroke-width="0.5pt" stroke-opacity="1.00" stroke-dasharray="none" points="47.500,339.727 47.500,339.727 47.500,113.023 47.500,113.023 "/>
    <g>
<g id="ID000002" >
</g>
<g id="ID000003" >
</g>
<g id="ID000004" >
</g>
<g id="ID000005" clip-path="url(#ID000001)" >
<g id="ID000006" clip-path="url(#ID000001)" >
      <polyline fill="none" fill-opacity="1.00" stroke="#00eb2c" stroke-width="2.0pt" stroke-opacity="1.00" stroke-dasharray="none" points="82.206,202.469 81.992,202.888 81.539,203.909 81.350,204.930 81.425,205.951 81.779,206.972 82.206,207.771 82.390,207.994 83.151,209.015 83.227,209.155 83.918,210.036 84.248,210.922 84.321,211.057 84.324,212.078 84.248,212.222 83.948,213.100 83.285,214.121 83.227,214.180 82.674,215.142 82.218,216.163 82.206,216.215 82.009,217.184 82.096,218.205 82.206,218.518 82.487,219.227 83.227,220.245 83.231,220.248 84.248,221.179 84.429,221.269 85.269,221.974 85.807,222.290 86.289,222.902 86.717,223.311 86.917,224.333 86.532,225.354 86.289,225.605 85.884,226.375 85.269,227.181 85.170,227.396 84.651,228.417 84.360,229.439 84.351,230.460 84.665,231.481 85.269,232.353 85.449,232.502 86.289,233.221 87.020,233.523 87.310,233.710 88.331,234.074 89.352,234.310 90.372,234.443 91.393,234.361 92.414,233.608 92.469,233.523 93.044,232.502 93.360,231.481 93.435,231.000 93.524,230.460 93.562,229.439 93.479,228.417 93.435,228.165 93.301,227.396 93.032,226.375 92.705,225.354 92.414,224.342 92.411,224.333 92.230,223.311 92.252,222.290 92.411,221.269 92.414,221.257 92.612,220.248 92.803,219.227 92.951,218.205 93.048,217.184 93.098,216.163 93.114,215.142 93.114,214.121 93.124,213.100 93.174,212.078 93.281,211.057 93.435,210.098 93.445,210.036 93.649,209.015 93.872,207.994 94.096,206.972 94.309,205.951 94.456,205.208 94.513,204.930 94.720,203.909 94.930,202.888 95.155,201.866 95.404,200.845 95.476,200.578 95.686,199.824 95.994,198.803 96.322,197.782 96.497,197.255 96.665,196.760 97.021,195.739 97.382,194.718 97.518,194.340 97.757,193.697 98.147,192.676 98.539,191.687 98.552,191.654 98.985,190.633 99.436,189.612 99.559,189.344 99.913,188.591 100.408,187.570 100.580,187.223 100.924,186.549 101.456,185.527 101.601,185.256 102.012,184.506 102.586,183.485 102.622,183.422 103.189,182.464 103.643,181.718 103.814,181.443 104.467,180.421 104.663,180.122 105.149,179.400 105.684,178.621 105.855,178.379 106.591,177.358 106.705,177.203 107.360,176.337 107.726,175.863 108.160,175.315 108.746,174.592 108.994,174.294 109.767,173.384 109.864,173.273 110.774,172.252 110.788,172.237 111.728,171.231 111.809,171.146 112.727,170.209 112.830,170.107 113.774,169.188 113.850,169.116 114.871,168.170 114.874,168.167 115.892,167.269 116.036,167.146 116.913,166.410 117.263,166.125 117.933,165.590 118.561,165.104 118.954,164.806 119.939,164.082 119.975,164.057 120.996,163.346 121.418,163.061 122.016,162.667 123.002,162.040 123.037,162.018 124.058,161.404 124.725,161.019 125.079,160.818 126.100,160.263 126.608,159.998 127.120,159.736 128.141,159.237 128.699,158.976 129.162,158.765 130.183,158.321 131.069,157.955 131.203,157.901 132.224,157.510 133.245,157.142 133.860,156.934 134.266,156.800 135.287,156.484 136.307,156.190 137.328,155.921 137.361,155.913 138.349,155.678 139.370,155.457 140.390,155.260 141.411,155.087 142.432,154.937 142.795,154.892 143.453,154.811 144.473,154.709 145.494,154.630 146.515,154.575 147.536,154.544 148.557,154.536 149.577,154.553 150.598,154.594 151.619,154.660 152.640,154.750 153.660,154.866 153.839,154.892 154.681,155.008 155.702,155.176 156.723,155.371 157.744,155.594 158.764,155.845 159.009,155.913 159.785,156.124 160.806,156.433 161.827,156.775 162.257,156.934 162.847,157.148 163.868,157.554 164.790,157.955 164.889,157.997 165.910,158.474 166.893,158.976 166.931,158.995 167.951,159.553 168.694,159.998 168.972,160.159 169.993,160.813 170.284,161.019 171.014,161.518 171.700,162.040 172.034,162.285 172.981,163.061 173.055,163.120 174.076,164.029 174.129,164.082 175.097,165.027 175.165,165.104 176.105,166.125 176.117,166.138 176.939,167.146 177.138,167.383 177.686,168.167 178.159,168.838 178.359,169.188 178.934,170.209 179.180,170.655 179.417,171.231 179.773,172.252 180.079,173.273 180.201,173.421 180.549,174.294 181.221,174.716 182.242,174.512 182.574,174.294 183.263,173.543 183.925,173.273 184.284,173.200 185.304,172.679 185.790,172.252 186.325,171.559 186.666,171.231 187.346,170.709 187.827,170.209 188.367,169.415 188.525,169.188 189.118,168.167 189.388,167.812 189.818,167.146 190.289,166.125 190.408,165.672 190.606,165.104 190.977,164.082 191.330,163.061 191.429,162.464 191.516,162.040 191.622,161.019 191.764,159.998 191.911,158.976 191.923,157.955 191.819,156.934 191.734,155.913 191.687,154.892 191.562,153.870 191.429,153.332 191.309,152.849 191.006,151.828 190.750,150.807 190.482,149.786 190.408,149.583 190.125,148.764 189.624,147.743 189.388,147.266 189.110,146.722 188.662,145.701 188.367,145.111 188.169,144.680 187.518,143.658 187.346,143.413 186.739,142.637 186.325,142.061 186.021,141.616 185.329,140.595 185.304,140.563 184.523,139.574 184.284,139.311 183.469,138.553 183.263,138.349 182.404,137.531 182.242,137.367 181.458,136.510 181.221,136.276 180.371,135.489 180.201,135.346 179.180,134.628 178.899,134.468 178.159,133.969 177.437,133.447 177.138,133.225 176.119,132.425 176.117,132.424 175.097,131.743 174.385,131.404 174.076,131.244 173.055,130.806 172.139,130.383 172.034,130.331 171.014,129.764 170.317,129.362 169.993,129.191 168.972,128.736 167.951,128.437 167.507,128.341 166.931,128.190 165.910,127.914 164.889,127.551 164.341,127.319 163.868,127.137 162.847,126.783 161.827,126.562 160.806,126.458 159.785,126.387 159.042,126.298 158.764,126.263 157.744,126.056 156.723,125.798 155.702,125.584 154.681,125.490 153.660,125.516 152.640,125.609 151.619,125.681 150.598,125.665 149.577,125.563 148.557,125.451 147.536,125.417 146.515,125.506 145.494,125.718 144.473,125.983 143.453,126.198 142.557,126.298 142.432,126.313 141.411,126.346 140.390,126.371 139.370,126.469 138.349,126.706 137.328,127.089 136.764,127.319 136.307,127.538 135.287,127.933 134.266,128.198 133.422,128.341 133.245,128.367 132.224,128.510 131.203,128.725 130.183,129.105 129.672,129.362 129.162,129.658 128.141,130.302 127.993,130.383 127.120,130.913 126.100,131.348 125.930,131.404 125.079,131.653 124.058,131.919 123.037,132.277 122.741,132.425 122.016,132.791 121.096,133.447 120.996,133.540 119.975,134.440 119.939,134.468 118.954,135.281 118.620,135.489 117.933,135.881 116.913,136.320 116.482,136.510 115.892,136.721 114.871,137.230 114.434,137.531 113.850,137.979 113.234,138.553 112.830,139.064 112.372,139.574 111.809,140.317 111.537,140.595 110.788,141.315 110.382,141.616 109.767,141.988 108.746,142.542 108.598,142.637 107.726,143.114 107.031,143.658 106.705,143.940 106.026,144.680 105.684,145.224 105.351,145.701 104.795,146.722 104.663,146.985 104.156,147.743 103.643,148.358 103.227,148.764 102.622,149.208 101.823,149.786 101.601,149.906 100.580,150.678 100.449,150.807 99.559,151.805 99.541,151.828 98.935,152.849 98.554,153.870 98.539,153.928 98.192,154.892 97.760,155.913 97.518,156.314 97.077,156.934 96.497,157.484 96.009,157.955 95.476,158.336 94.801,158.976 94.456,159.282 93.878,159.998 93.435,160.788 93.310,161.019 92.960,162.040 92.772,163.061 92.623,164.082 92.414,164.983 92.381,165.104 91.934,166.125 91.393,166.808 91.138,167.146 90.372,167.858 90.111,168.167 89.352,168.983 89.208,169.188 88.605,170.209 88.331,171.124 88.296,171.231 88.160,172.252 88.162,173.273 88.194,174.294 88.144,175.315 87.892,176.337 87.310,177.323 87.291,177.358 86.465,178.379 86.289,178.534 85.631,179.400 85.269,179.935 85.011,180.421 84.664,181.443 84.571,182.464 84.672,183.485 84.891,184.506 85.117,185.527 85.224,186.549 85.107,187.570 84.675,188.591 84.248,189.119 83.949,189.612 83.227,190.550 83.180,190.633 82.619,191.654 82.317,192.676 82.271,193.697 82.444,194.718 82.819,195.739 83.227,196.685 83.276,196.760 83.726,197.782 83.930,198.803 83.814,199.824 83.316,200.845 83.227,200.941 82.659,201.866 82.206,202.469 "/>
</g>
<g id="ID000007" clip-path="url(#ID000001)" >
      <polyline fill="none" fill-opacity="1.00" stroke="#00eb2c" stroke-width="2.0pt" stroke-opacity="1.00" stroke-dasharray="none" points="89.352,239.858 88.902,240.672 88.489,241.693 88.376,242.714 88.563,243.735 89.229,244.756 89.352,244.899 90.372,245.611 91.021,245.778 91.393,245.930 92.414,246.037 93.435,245.930 93.957,245.778 94.456,245.556 95.409,244.756 95.476,244.635 95.957,243.735 96.148,242.714 96.111,241.693 95.868,240.672 95.476,239.797 95.402,239.650 94.659,238.629 94.456,238.382 93.435,237.660 93.145,237.608 92.414,237.398 92.041,237.608 91.393,237.781 90.467,238.629 90.372,238.678 89.573,239.650 89.352,239.858 "/>
</g>
<g id="ID000008" clip-path="url(#ID000001)" >
      <polyline fill="none" fill-opacity="1.00" stroke="#00eb2c" stroke-width="2.0pt" stroke-opacity="1.00" stroke-dasharray="none" points="94.456,253.747 94.384,253.947 94.178,254.968 94.341,255.990 94.456,256.203 94.962,257.011 95.476,257.502 96.497,257.935 97.518,258.022 98.539,257.851 99.559,257.323 99.976,257.011 100.580,255.990 100.580,255.986 100.804,254.968 100.679,253.947 100.580,253.694 100.267,252.926 99.559,252.046 99.375,251.905 98.539,251.358 97.518,251.173 96.497,251.410 95.904,251.905 95.476,252.154 94.922,252.926 94.456,253.747 "/>
</g>
<g id="ID000009" clip-path="url(#ID000001)" >
      <polyline fill="none" fill-opacity="1.00" stroke="#00eb2c" stroke-width="2.0pt" stroke-opacity="1.00" stroke-dasharray="none" points="102.622,264.923 102.462,265.180 101.928,266.201 101.777,267.223 102.020,268.244 102.622,269.015 102.998,269.265 103.643,269.657 104.663,269.777 105.684,269.515 106.183,269.265 106.705,268.767 107.179,268.244 107.484,267.223 107.401,266.201 106.900,265.180 106.705,264.942 105.684,264.185 105.564,264.159 104.663,263.937 103.809,264.159 103.643,264.185 102.622,264.923 "/>
</g>
<g id="ID000010" clip-path="url(#ID000001)" >
      <polyline fill="none" fill-opacity="1.00" stroke="#00eb2c" stroke-width="2.0pt" stroke-opacity="1.00" stroke-dasharray="none" points="111.809,276.673 111.357,277.435 111.114,278.456 111.331,279.477 111.809,280.096 112.365,280.498 112.830,280.776 113.850,280.851 114.790,280.498 114.871,280.449 115.813,279.477 115.892,279.107 116.099,278.456 115.892,277.436 115.892,277.435 115.144,276.413 114.871,276.188 113.850,275.801 112.830,275.920 112.172,276.413 111.809,276.673 "/>
</g>
<g id="ID000011" clip-path="url(#ID000001)" >
      <polyline fill="none" fill-opacity="1.00" stroke="#00eb2c" stroke-width="2.0pt" stroke-opacity="1.00" stroke-dasharray="none" points="123.037,287.084 122.590,287.646 122.185,288.668 122.289,289.689 123.037,290.613 123.240,290.710 124.058,291.072 125.079,290.900 125.441,290.710 126.100,290.016 126.369,289.689 126.541,288.668 126.130,287.646 126.100,287.606 125.079,286.784 124.058,286.678 123.037,287.084 "/>
</g>
<g id="ID000012" clip-path="url(#ID000001)" >
      <polyline fill="none" fill-opacity="1.00" stroke="#00eb2c" stroke-width="2.0pt" stroke-opacity="1.00" stroke-dasharray="none" points="135.287,296.925 134.807,297.858 134.899,298.880 135.287,299.386 135.998,299.901 136.307,300.065 137.328,299.968 137.461,299.901 138.349,299.040 138.481,298.880 138.614,297.858 138.349,297.293 138.039,296.837 137.328,296.312 136.307,296.231 135.392,296.837 135.287,296.925 "/>
</g>
<g id="ID000013" clip-path="url(#ID000001)" >
      <polyline fill="none" fill-opacity="1.00" stroke="#00eb2c" stroke-width="2.0pt" stroke-opacity="1.00" stroke-dasharray="none" points="149.577,304.663 149.275,305.007 148.837,306.028 149.181,307.049 149.577,307.424 150.598,307.803 151.619,307.326 151.935,307.049 152.292,306.028 151.857,305.007 151.619,304.752 150.598,304.310 149.577,304.663 "/>
</g>
<g id="ID000014" clip-path="url(#ID000001)" >
      <polyline fill="none" fill-opacity="1.00" stroke="#00eb2c" stroke-width="2.0pt" stroke-opacity="1.00" stroke-dasharray="none" points="288.403,297.659 288.211,297.858 288.403,298.158 288.768,297.858 288.403,297.659 "/>
</g>
<g id="ID000015" clip-path="url(#ID000001)" >
      <polyline fill="none" fill-opacity="1.00" stroke="#00eb2c" stroke-width="2.0pt" stroke-opacity="1.00" stroke-dasharray="none" points="164.889,311.103 164.858,311.134 164.196,312.155 164.496,313.176 164.889,313.537 165.910,313.847 166.890,313.176 166.931,313.018 167.218,312.155 166.931,311.580 166.484,311.134 165.910,310.797 164.889,311.103 "/>
</g>
<g id="ID000016" clip-path="url(#ID000001)" >
      <polyline fill="none" fill-opacity="1.00" stroke="#00eb2c" stroke-width="2.0pt" stroke-opacity="1.00" stroke-dasharray="none" points="271.049,306.304 270.426,307.049 271.049,307.658 271.804,307.049 271.049,306.304 "/>
</g>
<g id="ID000017" clip-path="url(#ID000001)" >
      <polyline fill="none" fill-opacity="1.00" stroke="#00eb2c" stroke-width="2.0pt" stroke-opacity="1.00" stroke-dasharray="none" points="181.221,315.669 180.757,316.240 180.729,317.261 181.221,317.774 182.242,318.073 183.179,317.261 183.156,316.240 182.242,315.419 181.221,315.669 "/>
</g>
<g id="ID000018" clip-path="url(#ID000001)" >
      <polyline fill="none" fill-opacity="1.00" stroke="#00eb2c" stroke-width="2.0pt" stroke-opacity="1.00" stroke-dasharray="none" points="253.696,312.854 252.676,312.979 252.512,313.176 252.676,313.507 253.696,313.701 253.964,313.176 253.696,312.854 "/>
</g>
<g id="ID000019" clip-path="url(#ID000001)" >
      <polyline fill="none" fill-opacity="1.00" stroke="#00eb2c" stroke-width="2.0pt" stroke-opacity="1.00" stroke-dasharray="none" points="198.574,318.207 198.492,318.282 197.891,319.303 198.574,320.145 199.595,320.195 200.344,319.303 199.730,318.282 199.595,318.164 198.574,318.207 "/>
</g>
<g id="ID000020" clip-path="url(#ID000001)" >
      <polyline fill="none" fill-opacity="1.00" stroke="#00eb2c" stroke-width="2.0pt" stroke-opacity="1.00" stroke-dasharray="none" points="235.322,316.730 234.302,317.205 234.258,317.261 234.302,317.420 234.842,318.282 235.322,318.438 235.519,318.282 235.837,317.261 235.322,316.730 "/>
</g>
<g id="ID000021" clip-path="url(#ID000001)" >
      <polyline fill="none" fill-opacity="1.00" stroke="#00eb2c" stroke-width="2.0pt" stroke-opacity="1.00" stroke-dasharray="none" points="216.948,318.440 215.945,319.303 216.520,320.325 216.948,320.542 217.310,320.325 217.863,319.303 216.948,318.440 "/>
</g>
<g id="ID000022" clip-path="url(#ID000001)" >
      <polyline fill="none" fill-opacity="1.00" stroke="#9c05ff" stroke-width="2.0pt" stroke-opacity="1.00" stroke-dasharray="none" points="79.144,203.147 79.050,203.909 78.989,204.930 79.007,205.951 79.099,206.972 79.144,207.300 79.241,207.994 79.412,209.015 79.575,210.036 79.696,211.057 79.752,212.078 79.743,213.100 79.689,214.121 79.622,215.142 79.578,216.163 79.590,217.184 79.679,218.205 79.855,219.227 80.114,220.248 80.165,220.423 80.425,221.269 80.764,222.290 81.079,223.311 81.186,223.745 81.338,224.333 81.516,225.354 81.618,226.375 81.672,227.396 81.714,228.417 81.787,229.439 81.924,230.460 82.154,231.481 82.206,231.648 82.469,232.502 82.890,233.523 83.227,234.239 83.388,234.545 83.913,235.566 84.248,236.282 84.403,236.587 84.812,237.608 85.112,238.629 85.269,239.364 85.326,239.650 85.485,240.672 85.633,241.693 85.817,242.714 86.083,243.735 86.289,244.301 86.448,244.756 86.936,245.778 87.310,246.420 87.560,246.799 88.275,247.820 88.331,247.904 89.030,248.841 89.352,249.342 89.708,249.862 90.247,250.884 90.372,251.186 90.653,251.905 90.955,252.926 91.212,253.947 91.393,254.613 91.476,254.968 91.783,255.990 92.209,257.011 92.414,257.389 92.771,258.032 93.435,258.959 93.514,259.053 94.434,260.074 94.456,260.099 95.474,261.096 95.476,261.098 96.469,262.117 96.497,262.152 97.272,263.138 97.518,263.544 97.858,264.159 98.293,265.180 98.539,265.831 98.656,266.201 99.002,267.223 99.424,268.244 99.559,268.498 99.944,269.265 100.580,270.177 100.664,270.286 101.601,271.287 101.626,271.307 102.622,272.138 102.923,272.329 103.643,272.860 104.407,273.350 104.663,273.552 105.684,274.362 105.695,274.371 106.615,275.392 106.705,275.518 107.247,276.413 107.726,277.389 107.744,277.435 108.171,278.456 108.663,279.477 108.746,279.614 109.242,280.498 109.767,281.179 110.050,281.519 110.788,282.232 111.208,282.541 111.809,282.978 112.830,283.520 112.937,283.562 113.850,283.999 114.871,284.436 115.213,284.583 115.892,284.954 116.842,285.604 116.913,285.664 117.801,286.625 117.933,286.796 118.443,287.646 118.954,288.579 118.991,288.668 119.510,289.689 119.975,290.397 120.157,290.710 120.996,291.704 121.021,291.731 122.016,292.571 122.327,292.752 123.037,293.170 124.058,293.569 124.864,293.774 125.079,293.842 126.100,294.072 127.120,294.292 128.141,294.587 128.629,294.795 129.162,295.071 130.070,295.816 130.183,295.924 130.856,296.837 131.203,297.341 131.465,297.858 132.066,298.880 132.224,299.090 132.750,299.901 133.245,300.440 133.714,300.922 134.266,301.362 135.287,301.939 135.298,301.943 136.307,302.323 137.328,302.519 138.349,302.587 139.370,302.581 140.390,302.555 141.411,302.577 142.432,302.739 142.994,302.964 143.453,303.172 144.365,303.986 144.473,304.091 145.084,305.007 145.494,305.601 145.701,306.028 146.355,307.049 146.515,307.232 147.172,308.070 147.536,308.398 148.452,309.092 148.557,309.158 149.577,309.635 150.598,309.862 151.619,309.903 152.640,309.796 153.660,309.569 154.681,309.275 155.372,309.092 155.702,308.967 156.723,308.713 157.744,308.648 158.764,308.958 158.921,309.092 159.785,309.887 159.908,310.113 160.504,311.134 160.806,311.580 161.062,312.155 161.712,313.176 161.827,313.301 162.550,314.197 162.847,314.449 163.868,315.169 163.983,315.219 164.889,315.592 165.910,315.753 166.931,315.687 167.951,315.417 168.466,315.219 168.972,314.960 169.993,314.342 170.254,314.197 171.014,313.542 171.549,313.176 172.034,312.605 172.604,312.155 173.055,311.407 173.330,311.134 173.585,310.113 173.361,309.092 173.055,308.540 172.853,308.070 172.117,307.049 172.034,306.962 171.152,306.028 171.014,305.907 169.993,305.093 169.863,305.007 168.972,304.435 168.082,303.986 167.951,303.917 166.931,303.471 165.910,303.111 165.417,302.964 164.889,302.780 163.868,302.439 162.847,302.042 162.642,301.943 161.827,301.502 161.015,300.922 160.806,300.768 159.816,299.901 159.785,299.875 158.764,298.927 158.716,298.880 157.744,298.002 157.583,297.858 156.723,297.132 156.353,296.837 155.702,296.325 155.005,295.816 154.681,295.574 153.660,294.855 153.570,294.795 152.640,294.132 152.127,293.774 151.619,293.391 150.787,292.752 150.598,292.598 149.582,291.731 149.577,291.727 148.557,290.776 148.490,290.710 147.536,289.766 147.460,289.689 146.515,288.727 146.458,288.668 145.494,287.681 145.461,287.646 144.473,286.637 144.462,286.625 143.465,285.604 143.453,285.591 142.482,284.583 142.432,284.529 141.526,283.562 141.411,283.434 140.608,282.541 140.390,282.290 139.729,281.519 139.370,281.088 138.886,280.498 138.349,279.828 138.072,279.477 137.328,278.517 137.281,278.456 136.512,277.435 136.307,277.158 135.760,276.413 135.287,275.759 135.023,275.392 134.304,274.371 134.266,274.316 133.606,273.350 133.245,272.807 132.928,272.329 132.271,271.307 132.224,271.233 131.637,270.286 131.203,269.568 131.022,269.265 130.427,268.244 130.183,267.814 129.850,267.223 129.289,266.201 129.162,265.963 128.748,265.180 128.220,264.159 128.141,264.001 127.712,263.138 127.219,262.117 127.120,261.907 126.744,261.096 126.284,260.074 126.100,259.651 125.842,259.053 125.415,258.032 125.079,257.198 125.004,257.011 124.610,255.990 124.230,254.968 124.058,254.488 123.866,253.947 123.518,252.926 123.183,251.905 123.037,251.439 122.865,250.884 122.562,249.862 122.272,248.841 122.016,247.892 121.997,247.820 121.739,246.799 121.494,245.778 121.264,244.756 121.047,243.735 120.996,243.476 120.846,242.714 120.660,241.693 120.487,240.672 120.329,239.650 120.185,238.629 120.056,237.608 119.975,236.893 119.941,236.587 119.841,235.566 119.755,234.545 119.684,233.523 119.627,232.502 119.584,231.481 119.557,230.460 119.544,229.439 119.545,228.417 119.562,227.396 119.594,226.375 119.641,225.354 119.703,224.333 119.780,223.311 119.873,222.290 119.975,221.330 119.981,221.269 120.106,220.248 120.247,219.227 120.405,218.205 120.578,217.184 120.769,216.163 120.976,215.142 120.996,215.050 121.201,214.121 121.443,213.100 121.704,212.078 121.982,211.057 122.016,210.939 122.280,210.036 122.597,209.015 122.933,207.994 123.037,207.694 123.290,206.972 123.667,205.951 124.058,204.947 124.065,204.930 124.485,203.909 124.928,202.888 125.079,202.555 125.394,201.866 125.884,200.845 126.100,200.415 126.398,199.824 126.939,198.803 127.120,198.476 127.507,197.782 128.103,196.760 128.141,196.698 128.729,195.739 129.162,195.064 129.385,194.718 130.074,193.697 130.183,193.543 130.798,192.676 131.203,192.128 131.558,191.654 132.224,190.801 132.356,190.633 133.197,189.612 133.245,189.556 134.081,188.591 134.266,188.387 135.014,187.570 135.287,187.285 136.000,186.549 136.307,186.244 137.042,185.527 137.328,185.260 138.148,184.506 138.349,184.329 139.325,183.485 139.370,183.448 140.390,182.617 140.582,182.464 141.411,181.830 141.930,181.443 142.432,181.084 143.385,180.421 143.453,180.376 144.473,179.711 144.966,179.400 145.494,179.081 146.515,178.485 146.702,178.379 147.536,177.927 148.557,177.398 148.637,177.358 149.577,176.906 150.598,176.441 150.838,176.337 151.619,176.010 152.640,175.608 153.431,175.315 153.660,175.234 154.681,174.891 155.702,174.576 156.697,174.294 156.723,174.287 157.744,174.029 158.764,173.797 159.785,173.592 160.806,173.415 161.769,173.273 161.827,173.265 162.847,173.143 163.868,173.048 164.889,172.981 165.910,172.943 166.931,172.932 167.951,172.951 168.972,173.000 169.993,173.080 171.014,173.193 171.552,173.273 172.034,173.338 173.055,173.515 174.076,173.728 175.097,173.979 176.117,174.275 176.167,174.294 177.138,174.592 178.159,174.933 179.180,175.277 179.284,175.315 180.201,175.551 181.221,175.663 182.242,175.450 182.521,175.315 183.263,174.952 184.284,174.373 184.415,174.294 185.304,173.832 186.060,173.273 186.325,173.054 187.204,172.252 187.346,172.115 188.236,171.231 188.367,171.093 189.110,170.209 189.388,169.787 189.810,169.188 190.408,168.198 190.428,168.167 191.013,167.146 191.429,166.132 191.432,166.125 191.843,165.104 192.186,164.082 192.450,163.074 192.454,163.061 192.686,162.040 192.850,161.019 192.983,159.998 193.077,158.976 193.106,157.955 193.078,156.934 193.021,155.913 192.942,154.892 192.816,153.870 192.623,152.849 192.450,152.137 192.381,151.828 192.134,150.807 191.854,149.786 191.508,148.764 191.429,148.564 191.124,147.743 190.678,146.722 190.408,146.154 190.204,145.701 189.712,144.680 189.388,144.093 189.155,143.658 188.523,142.637 188.367,142.401 187.842,141.616 187.346,140.911 187.127,140.595 186.371,139.574 186.325,139.516 185.547,138.553 185.304,138.275 184.615,137.531 184.284,137.180 183.627,136.510 183.263,136.141 182.608,135.489 182.242,135.139 181.498,134.468 181.221,134.226 180.234,133.447 180.201,133.420 179.180,132.651 178.865,132.425 178.159,131.905 177.450,131.404 177.138,131.185 176.117,130.523 175.875,130.383 175.097,129.920 174.076,129.390 174.018,129.362 173.055,128.855 172.034,128.345 172.025,128.341 171.014,127.831 169.993,127.382 169.829,127.319 168.972,126.968 167.951,126.611 166.975,126.298 166.931,126.283 165.910,125.936 164.889,125.602 163.868,125.297 163.792,125.277 162.847,125.013 161.827,124.784 160.806,124.598 159.785,124.431 158.764,124.264 158.715,124.256 157.744,124.083 156.723,123.913 155.702,123.776 154.681,123.685 153.660,123.637 152.640,123.616 151.619,123.602 150.598,123.581 149.577,123.555 148.557,123.540 147.536,123.555 146.515,123.614 145.494,123.717 144.473,123.849 143.453,123.988 142.432,124.120 141.411,124.245 141.325,124.256 140.390,124.367 139.370,124.514 138.349,124.707 137.328,124.953 136.307,125.240 136.177,125.277 135.287,125.531 134.266,125.816 133.245,126.090 132.481,126.298 132.224,126.363 131.203,126.641 130.183,126.969 129.265,127.319 129.162,127.358 128.141,127.784 127.120,128.248 126.915,128.341 126.100,128.707 125.079,129.148 124.579,129.362 124.058,129.572 123.037,130.000 122.221,130.383 122.016,130.475 120.996,130.998 120.298,131.404 119.975,131.599 118.954,132.244 118.667,132.425 117.933,132.898 117.051,133.447 116.913,133.531 115.892,134.128 115.326,134.468 114.871,134.726 113.850,135.365 113.670,135.489 112.830,136.071 112.257,136.510 111.809,136.876 111.029,137.531 110.788,137.749 109.857,138.553 109.767,138.632 108.746,139.475 108.624,139.574 107.726,140.270 107.319,140.595 106.705,141.067 106.054,141.616 105.684,141.931 104.932,142.637 104.663,142.911 103.954,143.658 103.643,144.024 103.061,144.680 102.622,145.204 102.179,145.701 101.601,146.342 101.245,146.722 100.580,147.400 100.248,147.743 99.559,148.432 99.248,148.764 98.539,149.539 98.327,149.786 97.527,150.807 97.518,150.820 96.808,151.828 96.497,152.330 96.152,152.849 95.506,153.870 95.476,153.916 94.808,154.892 94.456,155.373 94.058,155.913 93.435,156.719 93.275,156.934 92.522,157.955 92.414,158.109 91.838,158.976 91.393,159.756 91.254,159.998 90.737,161.019 90.372,161.843 90.278,162.040 89.813,163.061 89.352,164.038 89.330,164.082 88.789,165.104 88.331,165.897 88.202,166.125 87.606,167.146 87.310,167.671 87.043,168.167 86.551,169.188 86.289,169.848 86.141,170.209 85.789,171.231 85.492,172.252 85.269,173.067 85.207,173.273 84.894,174.294 84.541,175.315 84.248,176.050 84.135,176.337 83.696,177.358 83.262,178.379 83.227,178.466 82.863,179.400 82.533,180.421 82.285,181.443 82.206,181.889 82.093,182.464 81.942,183.485 81.809,184.506 81.661,185.527 81.471,186.549 81.225,187.570 81.186,187.706 80.936,188.591 80.630,189.612 80.345,190.633 80.165,191.433 80.114,191.654 79.942,192.676 79.845,193.697 79.813,194.718 79.822,195.739 79.841,196.760 79.839,197.782 79.789,198.803 79.681,199.824 79.522,200.845 79.341,201.866 79.175,202.888 79.144,203.147 "/>
</g>
<g id="ID000023" clip-path="url(#ID000001)" >
      <polyline fill="none" fill-opacity="1.00" stroke="#9c05ff" stroke-width="2.0pt" stroke-opacity="1.00" stroke-dasharray="none" points="358.836,222.184 358.734,222.290 358.836,222.506 359.188,222.290 358.836,222.184 "/>
</g>
<g id="ID000024" clip-path="url(#ID000001)" >
      <polyline fill="none" fill-opacity="1.00" stroke="#9c05ff" stroke-width="2.0pt" stroke-opacity="1.00" stroke-dasharray="none" points="348.628,241.121 347.607,241.229 347.437,241.693 347.607,241.875 348.628,241.926 348.839,241.693 348.628,241.121 "/>
</g>
<g id="ID000025" clip-path="url(#ID000001)" >
      <polyline fill="none" fill-opacity="1.00" stroke="#9c05ff" stroke-width="2.0pt" stroke-opacity="1.00" stroke-dasharray="none" points="335.358,257.434 334.561,258.032 334.664,259.053 335.358,259.522 336.007,259.053 336.119,258.032 335.358,257.434 "/>
</g>
<g id="ID000026" clip-path="url(#ID000001)" >
      <polyline fill="none" fill-opacity="1.00" stroke="#9c05ff" stroke-width="2.0pt" stroke-opacity="1.00" stroke-dasharray="none" points="321.067,272.522 320.047,273.220 319.949,273.350 320.047,274.015 320.094,274.371 321.067,274.983 321.927,274.371 322.066,273.350 321.067,272.522 "/>
</g>
<g id="ID000027" clip-path="url(#ID000001)" >
      <polyline fill="none" fill-opacity="1.00" stroke="#9c05ff" stroke-width="2.0pt" stroke-opacity="1.00" stroke-dasharray="none" points="305.756,285.641 304.735,285.736 303.966,286.625 304.119,287.646 304.735,288.207 305.756,288.342 306.557,287.646 306.703,286.625 305.756,285.641 "/>
</g>
<g id="ID000028" clip-path="url(#ID000001)" >
      <polyline fill="none" fill-opacity="1.00" stroke="#9c05ff" stroke-width="2.0pt" stroke-opacity="1.00" stroke-dasharray="none" points="289.423,296.507 288.403,296.291 287.472,296.837 287.382,296.944 286.914,297.858 287.231,298.880 287.382,299.032 288.403,299.662 289.423,299.455 290.033,298.880 290.307,297.858 289.778,296.837 289.423,296.507 "/>
</g>
<g id="ID000029" clip-path="url(#ID000001)" >
      <polyline fill="none" fill-opacity="1.00" stroke="#9c05ff" stroke-width="2.0pt" stroke-opacity="1.00" stroke-dasharray="none" points="177.138,311.309 176.689,312.155 176.667,313.176 176.853,314.197 177.138,315.075 177.165,315.219 177.518,316.240 178.074,317.261 178.159,317.360 178.816,318.282 179.180,318.599 180.143,319.303 180.201,319.336 181.221,319.739 182.242,319.848 183.263,319.687 184.199,319.303 184.284,319.259 185.304,318.527 185.619,318.282 186.325,317.360 186.420,317.261 186.970,316.240 187.208,315.219 187.200,314.197 186.908,313.176 186.325,312.262 186.246,312.155 185.304,311.256 185.124,311.134 184.284,310.611 183.263,310.211 182.813,310.113 182.242,309.968 181.221,309.868 180.201,309.918 179.229,310.113 179.180,310.123 178.159,310.507 177.260,311.134 177.138,311.309 "/>
</g>
<g id="ID000030" clip-path="url(#ID000001)" >
      <polyline fill="none" fill-opacity="1.00" stroke="#9c05ff" stroke-width="2.0pt" stroke-opacity="1.00" stroke-dasharray="none" points="272.070,305.019 272.016,305.007 271.049,304.719 270.218,305.007 270.029,305.074 269.223,306.028 269.126,307.049 269.669,308.070 270.029,308.352 271.049,308.729 272.070,308.447 272.522,308.070 273.046,307.049 272.948,306.028 272.070,305.019 "/>
</g>
<g id="ID000031" clip-path="url(#ID000001)" >
      <polyline fill="none" fill-opacity="1.00" stroke="#9c05ff" stroke-width="2.0pt" stroke-opacity="1.00" stroke-dasharray="none" points="195.512,315.524 195.123,316.240 194.933,317.261 195.022,318.282 195.378,319.303 195.512,319.493 195.962,320.325 196.533,320.876 197.099,321.346 197.554,321.608 198.574,321.950 199.595,321.966 200.616,321.660 201.175,321.346 201.637,320.969 202.290,320.325 202.658,319.582 202.836,319.303 203.106,318.282 203.077,317.261 202.729,316.240 202.658,316.118 201.980,315.219 201.637,314.899 200.616,314.305 200.224,314.197 199.595,314.002 198.574,313.933 197.554,314.108 197.329,314.197 196.533,314.540 195.737,315.219 195.512,315.524 "/>
</g>
<g id="ID000032" clip-path="url(#ID000001)" >
      <polyline fill="none" fill-opacity="1.00" stroke="#9c05ff" stroke-width="2.0pt" stroke-opacity="1.00" stroke-dasharray="none" points="254.717,311.429 254.252,311.134 253.696,310.812 252.676,310.758 251.843,311.134 251.655,311.230 250.891,312.155 250.711,313.176 250.980,314.197 251.655,314.897 252.239,315.219 252.676,315.396 253.696,315.354 253.962,315.219 254.717,314.731 255.176,314.197 255.456,313.176 255.233,312.155 254.717,311.429 "/>
</g>
<g id="ID000033" clip-path="url(#ID000001)" >
      <polyline fill="none" fill-opacity="1.00" stroke="#9c05ff" stroke-width="2.0pt" stroke-opacity="1.00" stroke-dasharray="none" points="213.886,316.822 213.619,317.261 213.357,318.282 213.450,319.303 213.886,320.214 213.923,320.325 214.859,321.346 214.907,321.378 215.928,321.910 216.948,322.047 217.969,321.816 218.746,321.346 218.990,321.117 219.668,320.325 220.001,319.303 220.011,318.982 220.045,318.282 220.011,318.147 219.757,317.261 218.990,316.258 218.965,316.240 217.969,315.601 216.948,315.378 215.928,315.440 214.907,315.833 214.387,316.240 213.886,316.822 "/>
</g>
<g id="ID000034" clip-path="url(#ID000001)" >
      <polyline fill="none" fill-opacity="1.00" stroke="#9c05ff" stroke-width="2.0pt" stroke-opacity="1.00" stroke-dasharray="none" points="237.364,315.925 236.890,315.219 236.343,314.716 235.322,314.337 234.302,314.345 233.281,314.747 232.748,315.219 232.260,316.018 232.153,316.240 232.038,317.261 232.260,317.883 232.355,318.282 233.252,319.303 233.281,319.323 234.302,319.821 235.322,319.867 236.343,319.441 236.532,319.303 237.357,318.282 237.364,318.250 237.659,317.261 237.512,316.240 237.364,315.925 "/>
</g>
<g id="ID000035" clip-path="url(#ID000001)" >
      <polyline fill="none" fill-opacity="1.00" stroke="#be0000" stroke-width="2.0pt" stroke-opacity="1.00" stroke-dasharray="none" points="76.082,199.825 75.989,200.845 75.901,201.866 75.826,202.888 75.770,203.909 75.738,204.930 75.732,205.951 75.751,206.972 75.789,207.994 75.841,209.015 75.899,210.036 75.955,211.057 76.006,212.078 76.052,213.100 76.082,213.820 76.093,214.121 76.136,215.142 76.189,216.163 76.259,217.184 76.354,218.205 76.476,219.227 76.626,220.248 76.801,221.269 76.993,222.290 77.102,222.849 77.190,223.311 77.382,224.333 77.569,225.354 77.748,226.375 77.923,227.396 78.099,228.417 78.123,228.547 78.275,229.439 78.466,230.460 78.686,231.481 78.939,232.502 79.144,233.232 79.223,233.523 79.526,234.545 79.858,235.566 80.165,236.467 80.205,236.587 80.544,237.608 80.881,238.629 81.186,239.575 81.209,239.650 81.515,240.672 81.820,241.693 82.134,242.714 82.206,242.934 82.453,243.735 82.798,244.756 83.187,245.778 83.227,245.875 83.598,246.799 84.055,247.820 84.248,248.227 84.539,248.841 85.043,249.862 85.269,250.317 85.550,250.884 86.048,251.905 86.289,252.412 86.528,252.926 86.988,253.947 87.310,254.664 87.440,254.968 87.884,255.990 88.331,256.954 88.356,257.011 88.839,258.032 89.352,259.001 89.379,259.053 89.952,260.074 90.372,260.759 90.583,261.096 91.252,262.117 91.393,262.330 91.942,263.138 92.414,263.834 92.637,264.159 93.313,265.180 93.435,265.370 93.956,266.201 94.456,267.013 94.579,267.223 95.180,268.244 95.476,268.730 95.787,269.265 96.424,270.286 96.497,270.397 97.093,271.307 97.518,271.900 97.829,272.329 98.539,273.232 98.636,273.350 99.504,274.371 99.559,274.436 100.416,275.392 100.580,275.577 101.340,276.413 101.601,276.711 102.237,277.435 102.622,277.890 103.087,278.456 103.643,279.148 103.895,279.477 104.663,280.473 104.682,280.498 105.460,281.519 105.684,281.796 106.277,282.541 106.705,283.038 107.163,283.562 107.726,284.161 108.143,284.583 108.746,285.170 109.228,285.604 109.767,286.089 110.408,286.625 110.788,286.953 111.630,287.646 111.809,287.801 112.825,288.668 112.830,288.672 113.850,289.604 113.939,289.689 114.871,290.603 114.974,290.710 115.892,291.653 115.964,291.731 116.913,292.706 116.957,292.752 117.933,293.706 118.004,293.774 118.954,294.622 119.162,294.795 119.975,295.446 120.487,295.816 120.996,296.185 121.996,296.837 122.016,296.851 123.037,297.499 123.640,297.858 124.058,298.126 125.079,298.772 125.244,298.880 126.100,299.470 126.690,299.901 127.120,300.224 127.995,300.922 128.141,301.037 129.162,301.883 129.231,301.943 130.183,302.719 130.488,302.964 131.203,303.506 131.882,303.986 132.224,304.219 133.245,304.850 133.533,305.007 134.266,305.414 135.287,305.908 135.566,306.028 136.307,306.371 137.328,306.810 137.898,307.049 138.349,307.254 139.370,307.730 140.044,308.070 140.390,308.253 141.411,308.838 141.813,309.092 142.432,309.479 143.389,310.113 143.453,310.154 144.473,310.826 144.952,311.134 145.494,311.465 146.515,312.038 146.749,312.155 147.536,312.547 148.557,312.976 149.131,313.176 149.577,313.342 150.598,313.664 151.619,313.943 152.616,314.197 152.640,314.204 153.660,314.486 154.681,314.793 155.702,315.148 155.875,315.219 156.723,315.568 157.744,316.048 158.106,316.240 158.764,316.574 159.785,317.112 160.065,317.261 160.806,317.634 161.827,318.106 162.262,318.282 162.847,318.517 163.868,318.859 164.889,319.123 165.824,319.303 165.910,319.322 166.931,319.482 167.951,319.603 168.972,319.707 169.993,319.817 171.014,319.958 172.034,320.152 172.708,320.325 173.055,320.414 174.076,320.744 175.097,321.132 175.602,321.346 176.117,321.552 177.138,321.970 178.159,322.352 178.204,322.367 179.180,322.689 180.201,322.953 181.221,323.138 182.242,323.249 183.263,323.295 184.284,323.289 185.304,323.244 186.325,323.181 187.346,323.126 188.367,323.106 189.388,323.147 190.408,323.267 191.016,323.388 191.429,323.468 192.450,323.736 193.471,324.050 194.491,324.375 194.602,324.409 195.512,324.680 196.533,324.935 197.554,325.120 198.574,325.224 199.595,325.247 200.616,325.192 201.637,325.062 202.658,324.870 203.678,324.635 204.619,324.409 204.699,324.389 205.720,324.162 206.741,323.991 207.761,323.906 208.782,323.922 209.803,324.037 210.824,324.232 211.561,324.409 211.845,324.472 212.865,324.719 213.886,324.939 214.907,325.102 215.928,325.187 216.948,325.185 217.969,325.089 218.990,324.893 220.011,324.598 220.540,324.409 221.032,324.222 222.052,323.784 222.944,323.388 223.073,323.323 224.094,322.876 225.115,322.517 225.754,322.367 226.135,322.270 227.156,322.156 228.177,322.176 229.198,322.298 229.565,322.367 230.218,322.476 231.239,322.669 232.260,322.837 233.281,322.945 234.302,322.969 235.322,322.893 236.343,322.700 237.364,322.376 237.385,322.367 238.385,321.941 239.405,321.367 239.442,321.346 240.426,320.676 240.945,320.325 241.447,319.917 242.324,319.303 242.468,319.185 243.489,318.553 244.139,318.282 244.509,318.116 245.530,317.877 246.551,317.827 247.572,317.909 248.592,318.064 249.613,318.233 249.958,318.282 250.634,318.371 251.655,318.445 252.676,318.422 253.646,318.282 253.696,318.276 254.717,318.017 255.738,317.585 256.301,317.261 256.759,316.964 257.675,316.240 257.779,316.134 258.687,315.219 258.800,315.066 259.551,314.197 259.821,313.799 260.369,313.176 260.842,312.556 261.286,312.155 261.862,311.603 262.755,311.134 262.883,311.066 263.904,310.842 264.925,310.864 265.946,311.020 266.463,311.134 266.966,311.223 267.987,311.414 269.008,311.549 270.029,311.592 271.049,311.513 272.070,311.280 272.437,311.134 273.091,310.886 274.112,310.260 274.305,310.113 275.133,309.330 275.362,309.092 276.084,308.070 276.153,307.921 276.645,307.049 277.048,306.028 277.174,305.571 277.391,305.007 277.692,303.986 277.964,302.964 278.195,302.075 278.255,301.943 278.716,300.922 279.216,300.182 280.236,300.116 281.257,300.447 282.278,300.912 282.294,300.922 283.299,301.330 284.319,301.728 284.950,301.943 285.340,302.047 286.361,302.267 287.382,302.364 288.403,302.313 289.423,302.079 289.738,301.943 290.444,301.655 291.465,300.924 291.467,300.922 292.377,299.901 292.486,299.699 292.959,298.880 293.293,297.858 293.450,296.837 293.469,295.816 293.346,294.795 293.044,293.774 292.486,292.759 292.481,292.752 291.465,291.745 291.442,291.731 290.444,291.175 289.423,290.888 288.403,290.779 287.382,290.807 286.361,290.965 285.340,291.263 284.319,291.712 284.283,291.731 283.299,292.304 282.661,292.752 282.278,293.083 281.512,293.774 281.257,294.083 280.600,294.795 280.236,295.357 279.836,295.816 279.216,296.791 279.160,296.837 278.195,297.734 277.174,297.762 276.153,297.558 275.133,297.324 274.112,297.125 273.091,296.981 272.070,296.896 271.049,296.871 270.029,296.906 269.008,297.001 267.987,297.158 266.966,297.376 265.946,297.652 265.274,297.858 264.925,297.970 263.904,298.318 262.883,298.676 262.261,298.880 261.862,299.019 260.842,299.320 259.821,299.551 258.800,299.709 257.779,299.801 256.759,299.845 255.738,299.859 254.717,299.860 253.696,299.860 252.676,299.868 251.655,299.888 251.299,299.901 250.634,299.923 249.613,299.971 248.592,300.030 247.572,300.096 246.551,300.165 245.530,300.228 244.509,300.280 243.489,300.315 242.468,300.329 241.447,300.321 240.426,300.291 239.405,300.242 238.385,300.178 237.364,300.101 236.343,300.016 235.322,299.925 235.068,299.901 234.302,299.827 233.281,299.724 232.260,299.618 231.239,299.506 230.218,299.388 229.198,299.262 228.177,299.127 227.156,298.981 226.500,298.880 226.135,298.822 225.115,298.649 224.094,298.463 223.073,298.266 222.052,298.057 221.127,297.858 221.032,297.837 220.011,297.604 218.990,297.361 217.969,297.109 216.948,296.848 216.906,296.837 215.928,296.574 214.907,296.289 213.886,295.995 213.284,295.816 212.865,295.689 211.845,295.369 210.824,295.038 210.096,294.795 209.803,294.695 208.782,294.337 207.761,293.968 207.238,293.774 206.741,293.585 205.720,293.188 204.699,292.781 204.630,292.752 203.678,292.356 202.658,291.920 202.227,291.731 201.637,291.468 200.616,291.003 199.987,290.710 199.595,290.524 198.574,290.028 197.891,289.689 197.554,289.518 196.533,288.992 195.918,288.668 195.512,288.450 194.491,287.891 194.054,287.646 193.471,287.314 192.450,286.722 192.287,286.625 191.429,286.109 190.607,285.604 190.408,285.480 189.388,284.830 189.005,284.583 188.367,284.161 187.475,283.562 187.346,283.474 186.325,282.763 186.011,282.541 185.304,282.031 184.608,281.519 184.284,281.277 183.263,280.501 183.260,280.498 182.242,279.697 181.967,279.477 181.221,278.869 180.722,278.456 180.201,278.015 179.524,277.435 179.180,277.134 178.369,276.413 178.159,276.223 177.256,275.392 177.138,275.282 176.182,274.371 176.117,274.308 175.146,273.350 175.097,273.300 174.146,272.329 174.076,272.256 173.180,271.307 173.055,271.173 172.247,270.286 172.034,270.048 171.345,269.265 171.014,268.880 170.474,268.244 169.993,267.664 169.631,267.223 168.972,266.398 168.817,266.201 168.030,265.180 167.951,265.075 167.271,264.159 166.931,263.689 166.536,263.138 165.910,262.238 165.826,262.117 165.141,261.096 164.889,260.709 164.480,260.074 163.868,259.098 163.840,259.053 163.225,258.032 162.847,257.386 162.631,257.011 162.058,255.990 161.827,255.563 161.507,254.968 160.976,253.947 160.806,253.608 160.466,252.926 159.976,251.905 159.785,251.494 159.505,250.884 159.054,249.862 158.764,249.181 158.621,248.841 158.208,247.820 157.813,246.799 157.744,246.612 157.436,245.778 157.078,244.756 156.737,243.735 156.723,243.690 156.415,242.714 156.109,241.693 155.822,240.672 155.702,240.222 155.551,239.650 155.298,238.629 155.062,237.608 154.843,236.587 154.681,235.770 154.641,235.566 154.456,234.545 154.288,233.523 154.136,232.502 154.002,231.481 153.884,230.460 153.783,229.439 153.699,228.417 153.660,227.830 153.632,227.396 153.582,226.375 153.548,225.354 153.532,224.333 153.533,223.311 153.551,222.290 153.587,221.269 153.640,220.248 153.660,219.953 153.711,219.227 153.799,218.205 153.905,217.184 154.030,216.163 154.173,215.142 154.336,214.121 154.517,213.100 154.681,212.268 154.718,212.078 154.938,211.057 155.178,210.036 155.439,209.015 155.702,208.064 155.721,207.994 156.023,206.972 156.348,205.951 156.697,204.930 156.723,204.859 157.066,203.909 157.460,202.888 157.744,202.202 157.880,201.866 158.323,200.845 158.764,199.891 158.795,199.824 159.290,198.803 159.785,197.847 159.818,197.782 160.371,196.760 160.806,196.010 160.959,195.739 161.577,194.718 161.827,194.334 162.229,193.697 162.847,192.787 162.921,192.676 163.646,191.654 163.868,191.365 164.413,190.633 164.889,190.043 165.225,189.612 165.910,188.806 166.086,188.591 166.931,187.648 166.998,187.570 167.951,186.564 167.965,186.549 168.972,185.549 168.993,185.527 169.993,184.598 170.088,184.506 171.014,183.706 171.258,183.485 172.034,182.867 172.518,182.464 173.055,182.075 173.890,181.443 174.076,181.323 175.097,180.628 175.378,180.421 176.117,179.982 177.041,179.400 177.138,179.353 178.159,178.809 178.902,178.379 179.180,178.268 180.201,177.817 181.144,177.358 181.221,177.335 182.242,176.970 183.263,176.524 183.645,176.337 184.284,176.057 185.304,175.491 185.570,175.315 186.325,174.850 187.049,174.294 187.346,174.064 188.243,173.273 188.367,173.158 189.267,172.252 189.388,172.118 190.155,171.231 190.408,170.885 190.918,170.209 191.429,169.390 191.563,169.188 192.161,168.167 192.450,167.542 192.656,167.146 193.104,166.125 193.450,165.104 193.471,165.034 193.804,164.082 194.079,163.061 194.284,162.040 194.438,161.019 194.491,160.550 194.572,159.998 194.670,158.976 194.717,157.955 194.717,156.934 194.676,155.913 194.595,154.892 194.491,154.043 194.475,153.870 194.337,152.849 194.155,151.828 193.927,150.807 193.648,149.786 193.471,149.230 193.343,148.764 193.014,147.743 192.612,146.722 192.450,146.354 192.190,145.701 191.726,144.680 191.429,144.104 191.217,143.658 190.666,142.637 190.408,142.209 190.066,141.616 189.396,140.595 189.388,140.583 188.719,139.574 188.367,139.094 187.976,138.553 187.346,137.758 187.165,137.531 186.325,136.553 186.288,136.510 185.355,135.489 185.304,135.435 184.363,134.468 184.284,134.388 183.297,133.447 183.263,133.414 182.242,132.506 182.145,132.425 181.221,131.655 180.895,131.404 180.201,130.859 179.545,130.383 179.180,130.111 178.159,129.412 178.082,129.362 177.138,128.730 176.479,128.341 176.117,128.115 175.097,127.533 174.688,127.319 174.076,126.977 173.055,126.459 172.715,126.298 172.034,125.954 171.014,125.492 170.484,125.277 169.993,125.059 168.972,124.652 167.951,124.294 167.837,124.256 166.931,123.924 165.910,123.588 164.889,123.287 164.693,123.235 163.868,122.987 162.847,122.719 161.827,122.488 160.806,122.285 160.407,122.213 159.785,122.086 158.764,121.897 157.744,121.730 156.723,121.584 155.702,121.464 154.681,121.369 153.660,121.298 152.640,121.244 151.619,121.205 151.117,121.192 150.598,121.177 149.577,121.160 148.557,121.161 147.536,121.184 147.362,121.192 146.515,121.226 145.494,121.289 144.473,121.372 143.453,121.471 142.432,121.584 141.411,121.709 140.390,121.850 139.370,122.012 138.349,122.201 138.289,122.213 137.328,122.394 136.307,122.614 135.287,122.859 134.266,123.126 133.872,123.235 133.245,123.394 132.224,123.668 131.203,123.966 130.300,124.256 130.183,124.291 129.162,124.617 128.141,124.983 127.394,125.277 127.120,125.379 126.100,125.779 125.079,126.212 124.881,126.298 124.058,126.638 123.037,127.086 122.536,127.319 122.016,127.548 120.996,128.031 120.393,128.341 119.975,128.548 118.954,129.090 118.475,129.362 117.933,129.663 116.913,130.260 116.709,130.383 115.892,130.862 115.011,131.404 114.871,131.488 113.850,132.114 113.371,132.425 112.830,132.769 111.836,133.447 111.809,133.465 110.788,134.182 110.404,134.468 109.767,134.945 109.068,135.489 108.746,135.742 107.789,136.510 107.726,136.561 106.705,137.385 106.528,137.531 105.684,138.223 105.295,138.553 104.663,139.089 104.115,139.574 103.643,139.998 103.002,140.595 102.622,140.960 101.953,141.616 101.601,141.975 100.953,142.637 100.580,143.031 99.982,143.658 99.559,144.110 99.024,144.680 98.539,145.203 98.079,145.701 97.518,146.319 97.158,146.722 96.497,147.485 96.276,147.743 95.476,148.725 95.444,148.764 94.646,149.786 94.456,150.045 93.884,150.807 93.435,151.437 93.149,151.828 92.429,152.849 92.414,152.870 91.699,153.870 91.393,154.310 90.985,154.892 90.372,155.800 90.296,155.913 89.625,156.934 89.352,157.378 88.992,157.955 88.402,158.976 88.331,159.107 87.826,159.998 87.310,160.978 87.288,161.019 86.740,162.040 86.289,162.917 86.212,163.061 85.673,164.082 85.269,164.878 85.151,165.104 84.633,166.125 84.248,166.940 84.148,167.146 83.679,168.167 83.256,169.188 83.227,169.263 82.839,170.209 82.455,171.231 82.206,171.927 82.083,172.252 81.706,173.273 81.340,174.294 81.186,174.728 80.967,175.315 80.598,176.337 80.248,177.358 80.165,177.615 79.906,178.379 79.590,179.400 79.308,180.421 79.144,181.084 79.048,181.443 78.800,182.464 78.571,183.485 78.352,184.506 78.136,185.527 78.123,185.585 77.905,186.549 77.677,187.570 77.455,188.591 77.247,189.612 77.102,190.393 77.055,190.633 76.877,191.654 76.726,192.676 76.602,193.697 76.499,194.718 76.411,195.739 76.330,196.760 76.251,197.782 76.168,198.803 76.082,199.824 76.082,199.825 "/>
</g>
<g id="ID000036" clip-path="url(#ID000001)" >
      <polyline fill="none" fill-opacity="1.00" stroke="#be0000" stroke-width="2.0pt" stroke-opacity="1.00" stroke-dasharray="none" points="369.044,200.997 368.023,201.223 367.443,201.866 367.476,202.888 368.023,203.487 369.044,203.708 369.965,202.888 369.995,201.866 369.044,200.997 "/>
</g>
<g id="ID000037" clip-path="url(#ID000001)" >
      <polyline fill="none" fill-opacity="1.00" stroke="#be0000" stroke-width="2.0pt" stroke-opacity="1.00" stroke-dasharray="none" points="360.878,222.132 360.358,221.269 359.857,220.885 358.836,220.778 358.013,221.269 357.815,221.491 357.353,222.290 357.491,223.311 357.815,223.739 358.791,224.333 358.836,224.354 358.995,224.333 359.857,224.259 360.817,223.311 360.878,222.781 360.951,222.290 360.878,222.132 "/>
</g>
<g id="ID000038" clip-path="url(#ID000001)" >
      <polyline fill="none" fill-opacity="1.00" stroke="#be0000" stroke-width="2.0pt" stroke-opacity="1.00" stroke-dasharray="none" points="349.649,239.711 349.581,239.650 348.628,239.043 347.607,238.995 346.587,239.484 346.396,239.650 345.729,240.672 345.655,241.693 346.066,242.714 346.587,243.214 347.607,243.638 348.628,243.574 349.649,242.917 349.827,242.714 350.315,241.693 350.252,240.672 349.649,239.711 "/>
</g>
<g id="ID000039" clip-path="url(#ID000001)" >
      <polyline fill="none" fill-opacity="1.00" stroke="#be0000" stroke-width="2.0pt" stroke-opacity="1.00" stroke-dasharray="none" points="337.400,256.546 336.804,255.990 336.379,255.674 335.358,255.378 334.337,255.478 333.348,255.990 333.317,256.009 332.428,257.011 332.296,257.416 332.076,258.032 332.120,259.053 332.296,259.439 332.576,260.074 333.317,260.770 334.019,261.096 334.337,261.217 335.358,261.276 335.891,261.096 336.379,260.960 337.400,260.085 337.409,260.074 337.944,259.053 338.025,258.032 337.707,257.011 337.400,256.546 "/>
</g>
<g id="ID000040" clip-path="url(#ID000001)" >
      <polyline fill="none" fill-opacity="1.00" stroke="#be0000" stroke-width="2.0pt" stroke-opacity="1.00" stroke-dasharray="none" points="324.130,272.624 324.087,272.329 323.615,271.307 323.109,270.684 322.533,270.286 322.088,269.994 321.067,269.707 320.047,269.733 319.026,270.059 318.642,270.286 318.005,270.742 317.463,271.307 316.984,272.193 316.912,272.329 316.669,273.350 316.762,274.371 316.984,274.860 317.203,275.392 318.005,276.227 318.248,276.413 319.026,276.822 320.047,277.073 321.067,277.049 322.088,276.726 322.564,276.413 323.109,276.002 323.634,275.392 324.091,274.371 324.130,274.043 324.239,273.350 324.130,272.624 "/>
</g>
<g id="ID000041" clip-path="url(#ID000001)" >
      <polyline fill="none" fill-opacity="1.00" stroke="#be0000" stroke-width="2.0pt" stroke-opacity="1.00" stroke-dasharray="none" points="308.818,284.134 308.505,283.562 307.797,282.712 307.556,282.541 306.777,282.014 305.756,281.691 304.735,281.612 303.714,281.731 302.693,282.069 301.871,282.541 301.673,282.672 300.699,283.562 300.652,283.625 299.980,284.583 299.631,285.551 299.609,285.604 299.461,286.625 299.631,287.645 299.631,287.646 300.086,288.668 300.652,289.249 301.101,289.689 301.673,290.036 302.693,290.504 303.534,290.710 303.714,290.749 304.735,290.809 305.349,290.710 305.756,290.661 306.777,290.295 307.638,289.689 307.797,289.553 308.550,288.668 308.818,288.087 309.035,287.646 309.262,286.625 309.251,285.604 309.010,284.583 308.818,284.134 "/>
</g>
<g id="ID000042" clip-path="url(#ID000001)" >
      <polyline fill="none" fill-opacity="1.00" stroke="#ff9900" stroke-width="2.0pt" stroke-opacity="1.00" stroke-dasharray="none" points="71.999,193.592 71.984,193.697 71.853,194.718 71.735,195.739 71.627,196.760 71.528,197.782 71.437,198.803 71.355,199.824 71.281,200.845 71.218,201.866 71.164,202.888 71.123,203.909 71.094,204.930 71.077,205.951 71.072,206.972 71.078,207.994 71.094,209.015 71.119,210.036 71.151,211.057 71.189,212.078 71.234,213.100 71.287,214.121 71.347,215.142 71.417,216.163 71.499,217.184 71.593,218.205 71.702,219.227 71.825,220.248 71.962,221.269 71.999,221.519 72.103,222.290 72.251,223.311 72.411,224.333 72.580,225.354 72.759,226.375 72.947,227.396 73.019,227.775 73.133,228.417 73.324,229.439 73.528,230.460 73.748,231.481 73.985,232.502 74.040,232.725 74.224,233.523 74.477,234.545 74.750,235.566 75.042,236.587 75.061,236.650 75.328,237.608 75.629,238.629 75.946,239.650 76.082,240.077 76.261,240.672 76.578,241.693 76.912,242.714 77.102,243.276 77.249,243.735 77.591,244.756 77.955,245.778 78.123,246.225 78.327,246.799 78.713,247.820 79.128,248.841 79.144,248.879 79.539,249.862 79.978,250.884 80.165,251.303 80.423,251.905 80.878,252.926 81.186,253.590 81.345,253.947 81.810,254.968 82.206,255.802 82.292,255.990 82.767,257.011 83.227,257.948 83.266,258.032 83.761,259.053 84.248,259.995 84.287,260.074 84.814,261.096 85.269,261.918 85.375,262.117 85.945,263.138 86.289,263.725 86.539,264.159 87.150,265.180 87.310,265.441 87.768,266.201 88.331,267.101 88.405,267.223 89.038,268.244 89.352,268.736 89.681,269.265 90.338,270.286 90.372,270.339 90.989,271.307 91.393,271.916 91.662,272.329 92.357,273.350 92.414,273.431 93.062,274.371 93.435,274.887 93.798,275.392 94.456,276.268 94.565,276.413 95.351,277.435 95.476,277.594 96.155,278.456 96.497,278.881 96.977,279.477 97.518,280.138 97.812,280.498 98.539,281.378 98.655,281.519 99.501,282.541 99.559,282.610 100.350,283.562 100.580,283.833 101.213,284.583 101.601,285.031 102.098,285.604 102.622,286.191 103.011,286.625 103.643,287.309 103.959,287.646 104.663,288.382 104.943,288.668 105.684,289.415 105.962,289.689 106.705,290.416 107.011,290.710 107.726,291.395 108.082,291.731 108.746,292.361 109.164,292.752 109.767,293.321 110.251,293.774 110.788,294.277 111.344,294.795 111.809,295.227 112.447,295.816 112.830,296.166 113.574,296.837 113.850,297.084 114.738,297.858 114.871,297.974 115.892,298.832 115.950,298.880 116.913,299.665 117.215,299.901 117.933,300.465 118.541,300.922 118.954,301.237 119.918,301.943 119.975,301.986 120.996,302.735 121.317,302.964 122.016,303.476 122.728,303.986 123.037,304.212 124.058,304.946 124.142,305.007 125.079,305.688 125.557,306.028 126.100,306.417 127.007,307.049 127.120,307.129 128.141,307.829 128.508,308.070 129.162,308.504 130.100,309.092 130.183,309.144 131.203,309.771 131.794,310.113 132.224,310.368 133.245,310.945 133.592,311.134 134.266,311.513 135.287,312.065 135.456,312.155 136.307,312.625 137.328,313.172 137.337,313.176 138.349,313.737 139.201,314.197 139.370,314.291 140.390,314.854 141.074,315.219 141.411,315.403 142.432,315.944 143.016,316.240 143.453,316.466 144.473,316.969 145.105,317.261 145.494,317.447 146.515,317.907 147.415,318.282 147.536,318.335 148.557,318.761 149.577,319.161 149.954,319.303 150.598,319.560 151.619,319.955 152.598,320.325 152.640,320.341 153.660,320.746 154.681,321.145 155.195,321.346 155.702,321.551 156.723,321.959 157.744,322.352 157.783,322.367 158.764,322.751 159.785,323.126 160.547,323.388 160.806,323.481 161.827,323.825 162.847,324.140 163.806,324.409 163.868,324.428 164.889,324.713 165.910,324.977 166.931,325.226 167.800,325.431 167.951,325.469 168.972,325.721 169.993,325.972 171.014,326.225 171.920,326.452 172.034,326.482 173.055,326.755 174.076,327.025 175.097,327.288 175.841,327.473 176.117,327.544 177.138,327.797 178.159,328.028 179.180,328.235 180.201,328.419 180.677,328.494 181.221,328.586 182.242,328.738 183.263,328.870 184.284,328.989 185.304,329.098 186.325,329.203 187.346,329.310 188.367,329.422 189.157,329.515 189.388,329.544 190.408,329.680 191.429,329.821 192.450,329.966 193.471,330.108 194.491,330.242 195.512,330.363 196.533,330.467 197.393,330.537 197.554,330.551 198.574,330.617 199.595,330.659 200.616,330.678 201.637,330.677 202.658,330.661 203.678,330.634 204.699,330.603 205.720,330.574 206.741,330.551 207.761,330.539 208.782,330.540 209.803,330.553 210.824,330.574 211.845,330.600 212.865,330.623 213.886,330.637 214.907,330.636 215.928,330.615 216.948,330.570 217.416,330.537 217.969,330.500 218.990,330.408 220.011,330.290 221.032,330.150 222.052,329.991 223.073,329.821 224.094,329.647 224.880,329.515 225.115,329.477 226.135,329.325 227.156,329.186 228.177,329.064 229.198,328.957 230.218,328.862 231.239,328.772 232.260,328.679 233.281,328.576 233.961,328.494 234.302,328.457 235.322,328.321 236.343,328.156 237.364,327.957 238.385,327.724 239.339,327.473 239.405,327.456 240.426,327.175 241.447,326.867 242.468,326.541 242.750,326.452 243.489,326.221 244.509,325.908 245.530,325.608 246.179,325.431 246.551,325.332 247.572,325.087 248.592,324.862 249.613,324.651 250.634,324.446 250.811,324.409 251.655,324.248 252.676,324.039 253.696,323.805 254.717,323.537 255.214,323.388 255.738,323.239 256.759,322.907 257.779,322.523 258.158,322.367 258.800,322.106 259.821,321.652 260.470,321.346 260.842,321.169 261.862,320.677 262.590,320.325 262.883,320.182 263.904,319.709 264.827,319.303 264.925,319.261 265.946,318.859 266.966,318.489 267.574,318.282 267.987,318.150 269.008,317.839 270.029,317.530 270.878,317.261 271.049,317.211 272.070,316.886 273.091,316.521 273.783,316.240 274.112,316.112 275.133,315.662 276.007,315.219 276.153,315.145 277.174,314.580 277.804,314.197 278.195,313.953 279.216,313.281 279.373,313.176 280.236,312.582 280.862,312.155 281.257,311.878 282.278,311.200 282.384,311.134 283.299,310.573 284.120,310.113 284.319,310.005 285.340,309.503 286.244,309.092 286.361,309.042 287.382,308.626 288.403,308.210 288.730,308.070 289.423,307.796 290.444,307.352 291.064,307.049 291.465,306.862 292.486,306.318 292.964,306.028 293.506,305.699 294.504,305.007 294.527,304.990 295.548,304.199 295.807,303.986 296.569,303.315 296.960,302.964 297.590,302.358 298.033,301.943 298.610,301.371 299.095,300.922 299.631,300.413 300.225,299.901 300.652,299.539 301.525,298.880 301.673,298.774 302.693,298.120 303.138,297.858 303.714,297.548 304.735,297.024 305.095,296.837 305.756,296.525 306.777,296.009 307.122,295.816 307.797,295.463 308.818,294.841 308.886,294.795 309.839,294.148 310.319,293.774 310.860,293.333 311.500,292.752 311.880,292.376 312.495,291.731 312.901,291.252 313.359,290.710 313.922,289.956 314.131,289.689 314.859,288.668 314.943,288.541 315.602,287.646 315.963,287.148 316.395,286.625 316.984,285.944 317.322,285.604 318.005,284.980 318.499,284.583 319.026,284.209 320.029,283.562 320.047,283.552 321.067,282.980 321.824,282.541 322.088,282.403 323.109,281.809 323.543,281.519 324.130,281.146 324.984,280.498 325.150,280.371 326.143,279.477 326.171,279.449 327.082,278.456 327.192,278.316 327.857,277.435 328.213,276.862 328.498,276.413 329.041,275.392 329.234,274.955 329.520,274.371 329.960,273.350 330.254,272.617 330.389,272.329 330.872,271.307 331.275,270.556 331.447,270.286 332.230,269.265 332.296,269.195 333.317,268.282 333.364,268.244 334.337,267.602 334.938,267.223 335.358,267.000 336.379,266.415 336.707,266.201 337.400,265.795 338.261,265.180 338.420,265.071 339.441,264.205 339.488,264.159 340.440,263.138 340.462,263.110 341.190,262.117 341.483,261.601 341.769,261.096 342.215,260.074 342.504,259.153 342.538,259.053 342.796,258.032 342.975,257.011 343.103,255.990 343.207,254.968 343.324,253.947 343.507,252.926 343.524,252.862 343.853,251.905 344.528,250.884 344.545,250.867 345.566,250.062 345.868,249.862 346.587,249.518 347.607,249.037 347.975,248.841 348.628,248.560 349.649,248.010 349.929,247.820 350.670,247.356 351.347,246.799 351.691,246.507 352.376,245.778 352.711,245.354 353.129,244.756 353.660,243.735 353.732,243.534 354.040,242.714 354.269,241.693 354.364,240.672 354.340,239.650 354.203,238.629 353.953,237.608 353.732,236.948 353.593,236.587 353.112,235.566 352.711,234.859 352.467,234.545 351.691,233.639 351.529,233.523 350.670,232.905 349.649,232.567 349.128,232.502 348.628,232.433 347.607,232.463 347.380,232.502 346.587,232.612 345.566,232.872 344.545,233.261 344.022,233.523 343.524,233.765 342.504,234.400 342.304,234.545 341.483,235.181 341.044,235.566 340.462,236.144 340.037,236.587 339.441,237.317 339.199,237.608 338.479,238.629 338.420,238.727 337.807,239.650 337.400,240.352 337.183,240.672 336.527,241.693 336.379,241.924 335.757,242.714 335.358,243.171 334.758,243.735 334.337,244.079 333.370,244.756 333.317,244.789 332.296,245.380 331.590,245.778 331.275,245.939 330.254,246.484 329.698,246.799 329.234,247.049 328.213,247.644 327.928,247.820 327.192,248.273 326.331,248.841 326.171,248.949 325.150,249.662 324.868,249.862 324.130,250.410 323.492,250.884 323.109,251.182 322.156,251.905 322.088,251.958 321.067,252.722 320.780,252.926 320.047,253.455 319.319,253.947 319.026,254.146 318.005,254.790 317.706,254.968 316.984,255.391 315.963,255.960 315.909,255.990 314.943,256.498 313.944,257.011 313.922,257.022 312.901,257.528 311.883,258.032 311.880,258.033 310.860,258.529 309.839,259.027 309.785,259.053 308.818,259.518 307.797,260.009 307.660,260.074 306.777,260.492 305.756,260.968 305.476,261.096 304.735,261.433 303.714,261.886 303.176,262.117 302.693,262.324 301.673,262.747 300.699,263.138 300.652,263.157 299.631,263.549 298.610,263.929 297.973,264.159 297.590,264.297 296.569,264.650 295.548,264.995 294.981,265.180 294.527,265.328 293.506,265.650 292.486,265.964 291.689,266.201 291.465,266.268 290.444,266.560 289.423,266.844 288.403,267.118 287.996,267.223 287.382,267.381 286.361,267.632 285.340,267.874 284.319,268.105 283.676,268.244 283.299,268.325 282.278,268.533 281.257,268.731 280.236,268.919 279.216,269.097 278.195,269.265 278.193,269.265 277.174,269.421 276.153,269.566 275.133,269.702 274.112,269.828 273.091,269.943 272.070,270.048 271.049,270.143 270.029,270.228 269.222,270.286 269.008,270.302 267.987,270.365 266.966,270.418 265.946,270.460 264.925,270.492 263.904,270.513 262.883,270.524 261.862,270.525 260.842,270.514 259.821,270.493 258.800,270.462 257.779,270.419 256.759,270.366 255.738,270.302 255.515,270.286 254.717,270.227 253.696,270.141 252.676,270.043 251.655,269.935 250.634,269.815 249.613,269.684 248.592,269.542 247.572,269.388 246.809,269.265 246.551,269.223 245.530,269.045 244.509,268.855 243.489,268.654 242.468,268.441 241.572,268.244 241.447,268.216 240.426,267.977 239.405,267.727 238.385,267.464 237.491,267.223 237.364,267.188 236.343,266.898 235.322,266.595 234.302,266.280 234.057,266.201 233.281,265.950 232.260,265.606 231.239,265.249 231.049,265.180 230.218,264.876 229.198,264.490 228.355,264.159 228.177,264.089 227.156,263.671 226.135,263.239 225.903,263.138 225.115,262.790 224.094,262.326 223.647,262.117 223.073,261.845 222.052,261.347 221.552,261.096 221.032,260.831 220.011,260.298 219.595,260.074 218.990,259.746 217.969,259.176 217.755,259.053 216.948,258.585 216.021,258.032 215.928,257.976 214.907,257.345 214.381,257.011 213.886,256.693 212.865,256.019 212.822,255.990 211.845,255.321 211.342,254.968 210.824,254.600 209.927,253.947 209.803,253.855 208.782,253.084 208.578,252.926 207.761,252.286 207.288,251.905 206.741,251.460 206.050,250.884 205.720,250.604 204.864,249.862 204.699,249.718 203.724,248.841 203.678,248.799 202.658,247.846 202.631,247.820 201.637,246.856 201.579,246.799 200.616,245.827 200.568,245.778 199.595,244.758 199.594,244.756 198.658,243.735 198.574,243.643 197.756,242.714 197.554,242.481 196.887,241.693 196.533,241.267 196.049,240.672 195.512,239.997 195.242,239.650 194.491,238.667 194.464,238.629 193.716,237.608 193.471,237.267 192.994,236.587 192.450,235.792 192.299,235.566 191.630,234.545 191.429,234.231 190.986,233.523 190.408,232.574 190.366,232.502 189.771,231.481 189.388,230.803 189.198,230.460 188.648,229.439 188.367,228.901 188.120,228.417 187.614,227.396 187.346,226.839 187.128,226.375 186.664,225.354 186.325,224.579 186.220,224.333 185.797,223.311 185.392,222.290 185.304,222.063 185.007,221.269 184.642,220.248 184.294,219.227 184.284,219.195 183.967,218.205 183.657,217.184 183.365,216.163 183.263,215.789 183.091,215.142 182.836,214.121 182.597,213.100 182.376,212.078 182.242,211.413 182.172,211.057 181.987,210.036 181.817,209.015 181.665,207.994 181.529,206.972 181.410,205.951 181.308,204.930 181.222,203.909 181.221,203.900 181.153,202.888 181.100,201.866 181.064,200.845 181.043,199.824 181.039,198.803 181.051,197.782 181.079,196.760 181.122,195.739 181.181,194.718 181.221,194.179 181.256,193.697 181.346,192.676 181.452,191.654 181.572,190.633 181.707,189.612 181.855,188.591 182.017,187.570 182.191,186.549 182.242,186.284 182.380,185.527 182.581,184.506 182.793,183.485 183.014,182.464 183.245,181.443 183.263,181.380 183.513,180.421 183.883,179.400 184.284,179.092 185.304,178.676 185.873,178.379 186.325,178.159 187.346,177.487 187.517,177.358 188.367,176.753 188.899,176.337 189.388,175.955 190.122,175.315 190.408,175.052 191.160,174.294 191.429,174.000 192.068,173.273 192.450,172.792 192.876,172.252 193.471,171.389 193.581,171.231 194.228,170.209 194.491,169.716 194.791,169.188 195.290,168.167 195.512,167.630 195.733,167.146 196.133,166.125 196.454,165.104 196.533,164.807 196.755,164.082 197.013,163.061 197.216,162.040 197.373,161.019 197.489,159.998 197.554,159.146 197.570,158.976 197.624,157.955 197.638,156.934 197.614,155.913 197.554,154.921 197.552,154.892 197.470,153.870 197.353,152.849 197.198,151.828 197.004,150.807 196.766,149.786 196.533,148.944 196.490,148.764 196.209,147.743 195.875,146.722 195.512,145.779 195.485,145.701 195.099,144.680 194.644,143.658 194.491,143.346 194.172,142.637 193.643,141.616 193.471,141.309 193.090,140.595 192.468,139.574 192.450,139.546 191.838,138.553 191.429,137.958 191.143,137.531 190.408,136.536 190.389,136.510 189.609,135.489 189.388,135.218 188.769,134.468 188.367,134.008 187.867,133.447 187.346,132.887 186.905,132.425 186.325,131.840 185.878,131.404 185.304,130.859 184.778,130.383 184.284,129.941 183.597,129.362 183.263,129.081 182.323,128.341 182.242,128.276 181.221,127.500 180.966,127.319 180.201,126.765 179.495,126.298 179.180,126.084 178.159,125.436 177.889,125.277 177.138,124.814 176.125,124.256 176.117,124.251 175.097,123.681 174.189,123.235 174.076,123.175 173.055,122.666 172.034,122.220 172.017,122.213 171.014,121.764 169.993,121.360 169.530,121.192 168.972,120.971 167.951,120.599 166.931,120.268 166.604,120.171 165.910,119.941 164.889,119.636 163.868,119.365 162.953,119.150 162.847,119.122 161.827,118.873 160.806,118.653 159.785,118.458 158.764,118.286 157.744,118.136 157.683,118.129 156.723,117.986 155.702,117.857 154.681,117.749 153.660,117.662 152.640,117.593 151.619,117.541 150.598,117.506 149.577,117.487 148.557,117.484 147.536,117.497 146.515,117.528 145.494,117.577 144.473,117.643 143.453,117.727 142.432,117.827 141.411,117.945 140.390,118.081 140.071,118.129 139.370,118.222 138.349,118.375 137.328,118.549 136.307,118.746 135.287,118.966 134.509,119.150 134.266,119.202 133.245,119.436 132.224,119.694 131.203,119.977 130.555,120.171 130.183,120.273 129.162,120.572 128.141,120.902 127.321,121.192 127.120,121.258 126.100,121.610 125.079,121.998 124.548,122.213 124.058,122.398 123.037,122.809 122.069,123.235 122.016,123.256 120.996,123.692 119.975,124.172 119.804,124.256 118.954,124.650 117.933,125.169 117.730,125.277 116.913,125.691 115.892,126.255 115.817,126.298 114.871,126.815 114.019,127.319 113.850,127.416 112.830,128.019 112.317,128.341 111.809,128.650 110.788,129.311 110.712,129.362 109.767,129.977 109.183,130.383 108.746,130.681 107.747,131.404 107.726,131.419 106.705,132.165 106.364,132.425 105.684,132.941 105.045,133.447 104.663,133.746 103.779,134.468 103.643,134.578 102.622,135.434 102.557,135.489 101.601,136.311 101.377,136.510 100.580,137.224 100.246,137.531 99.559,138.173 99.162,138.553 98.539,139.158 98.118,139.574 97.518,140.179 97.109,140.595 96.497,141.232 96.131,141.616 95.476,142.318 95.181,142.637 94.456,143.441 94.260,143.658 93.435,144.608 93.372,144.680 92.509,145.701 92.414,145.818 91.672,146.722 91.393,147.078 90.866,147.743 90.372,148.396 90.090,148.764 89.352,149.772 89.341,149.786 88.594,150.807 88.331,151.184 87.872,151.828 87.310,152.659 87.179,152.849 86.496,153.870 86.289,154.195 85.835,154.892 85.269,155.818 85.209,155.913 84.586,156.934 84.248,157.527 83.994,157.955 83.419,158.976 83.227,159.333 82.854,159.998 82.313,161.019 82.206,161.228 81.772,162.040 81.261,163.061 81.186,163.217 80.747,164.082 80.267,165.104 80.165,165.331 79.789,166.125 79.339,167.146 79.144,167.615 78.901,168.167 78.477,169.188 78.123,170.104 78.080,170.209 77.673,171.231 77.294,172.252 77.102,172.792 76.920,173.273 76.551,174.294 76.207,175.315 76.082,175.707 75.866,176.337 75.536,177.358 75.232,178.379 75.061,178.994 74.939,179.400 74.650,180.421 74.383,181.443 74.134,182.464 74.040,182.868 73.885,183.485 73.642,184.506 73.413,185.527 73.198,186.549 73.019,187.452 72.994,187.570 72.786,188.591 72.594,189.612 72.418,190.633 72.259,191.654 72.115,192.676 71.999,193.592 "/>
</g>
<g id="ID000043" clip-path="url(#ID000001)" >
      <polyline fill="none" fill-opacity="1.00" stroke="#ff9900" stroke-width="2.0pt" stroke-opacity="1.00" stroke-dasharray="none" points="372.106,200.257 371.816,199.824 371.085,199.126 370.515,198.803 370.064,198.566 369.044,198.317 368.023,198.342 367.002,198.643 366.706,198.803 365.981,199.253 365.380,199.824 364.961,200.450 364.715,200.845 364.370,201.866 364.293,202.888 364.460,203.909 364.931,204.930 364.961,204.973 365.830,205.951 365.981,206.076 367.002,206.626 368.023,206.828 369.044,206.787 370.064,206.497 370.954,205.951 371.085,205.866 371.970,204.930 372.106,204.704 372.522,203.909 372.763,202.888 372.743,201.866 372.450,200.845 372.106,200.257 "/>
</g>
<g id="ID000044" clip-path="url(#ID000001)" >
      <polyline fill="none" fill-opacity="1.00" stroke="#ff9900" stroke-width="2.0pt" stroke-opacity="1.00" stroke-dasharray="none" points="363.940,220.282 363.930,220.248 363.419,219.227 362.919,218.557 362.571,218.205 361.898,217.624 361.060,217.184 360.878,217.086 359.857,216.774 358.836,216.689 357.815,216.798 356.794,217.108 356.633,217.184 355.774,217.600 354.942,218.205 354.753,218.369 353.937,219.227 353.732,219.524 353.247,220.248 352.795,221.269 352.711,221.584 352.491,222.290 352.337,223.311 352.332,224.333 352.482,225.354 352.711,226.085 352.812,226.375 353.408,227.396 353.732,227.761 354.701,228.417 354.753,228.445 355.774,228.792 356.794,228.915 357.815,228.885 358.836,228.719 359.788,228.417 359.857,228.400 360.878,227.965 361.723,227.396 361.898,227.280 362.837,226.375 362.919,226.279 363.566,225.354 363.940,224.509 364.016,224.333 364.283,223.311 364.354,222.290 364.241,221.269 363.940,220.282 "/>
</g>
</g><g id="ID000045" clip-path="url(#ID000001)" >
<g>
<circle cx="368.768" cy="202.326" r="1.000" fill="#000000" stroke="none" stroke-width="2.0pt" />
<circle cx="359.252" cy="222.587" r="1.000" fill="#000000" stroke="none" stroke-width="2.0pt" />
<circle cx="348.152" cy="241.369" r="1.000" fill="#000000" stroke="none" stroke-width="2.0pt" />
<circle cx="335.380" cy="258.504" r="1.000" fill="#000000" stroke="none" stroke-width="2.0pt" />
<circle cx="321.071" cy="273.784" r="1.000" fill="#000000" stroke="none" stroke-width="2.0pt" />
<circle cx="305.437" cy="287.034" r="1.000" fill="#000000" stroke="none" stroke-width="2.0pt" />
<circle cx="288.735" cy="298.120" r="1.000" fill="#000000" stroke="none" stroke-width="2.0pt" />
<circle cx="271.240" cy="306.949" r="1.000" fill="#000000" stroke="none" stroke-width="2.0pt" />
<circle cx="253.241" cy="313.472" r="1.000" fill="#000000" stroke="none" stroke-width="2.0pt" />
<circle cx="235.031" cy="317.679" r="1.000" fill="#000000" stroke="none" stroke-width="2.0pt" />
<circle cx="216.898" cy="319.602" r="1.000" fill="#000000" stroke="none" stroke-width="2.0pt" />
<circle cx="199.120" cy="319.310" r="1.000" fill="#000000" stroke="none" stroke-width="2.0pt" />
<circle cx="181.960" cy="316.907" r="1.000" fill="#000000" stroke="none" stroke-width="2.0pt" />
<circle cx="165.663" cy="312.529" r="1.000" fill="#000000" stroke="none" stroke-width="2.0pt" />
<circle cx="150.449" cy="306.341" r="1.000" fill="#000000" stroke="none" stroke-width="2.0pt" />
<circle cx="136.513" cy="298.532" r="1.000" fill="#000000" stroke="none" stroke-width="2.0pt" />
<circle cx="124.017" cy="289.314" r="1.000" fill="#000000" stroke="none" stroke-width="2.0pt" />
<circle cx="113.096" cy="278.912" r="1.000" fill="#000000" stroke="none" stroke-width="2.0pt" />
<circle cx="103.848" cy="267.564" r="1.000" fill="#000000" stroke="none" stroke-width="2.0pt" />
<circle cx="96.339" cy="255.514" r="1.000" fill="#000000" stroke="none" stroke-width="2.0pt" />
<circle cx="90.600" cy="243.008" r="1.000" fill="#000000" stroke="none" stroke-width="2.0pt" />
<circle cx="86.630" cy="230.291" r="1.000" fill="#000000" stroke="none" stroke-width="2.0pt" />
<circle cx="84.395" cy="217.598" r="1.000" fill="#000000" stroke="none" stroke-width="2.0pt" />
<circle cx="83.829" cy="205.155" r="1.000" fill="#000000" stroke="none" stroke-width="2.0pt" />
<circle cx="84.840" cy="193.171" r="1.000" fill="#000000" stroke="none" stroke-width="2.0pt" />
<circle cx="87.309" cy="181.838" r="1.000" fill="#000000" stroke="none" stroke-width="2.0pt" />
<circle cx="91.094" cy="171.325" r="1.000" fill="#000000" stroke="none" stroke-width="2.0pt" />
<circle cx="96.036" cy="161.776" r="1.000" fill="#000000" stroke="none" stroke-width="2.0pt" />
<circle cx="101.959" cy="153.312" r="1.000" fill="#000000" stroke="none" stroke-width="2.0pt" />
<circle cx="108.677" cy="146.022" r="1.000" fill="#000000" stroke="none" stroke-width="2.0pt" />
<circle cx="115.995" cy="139.968" r="1.000" fill="#000000" stroke="none" stroke-width="2.0pt" />
<circle cx="123.719" cy="135.184" r="1.000" fill="#000000" stroke="none" stroke-width="2.0pt" />
<circle cx="131.653" cy="131.672" r="1.000" fill="#000000" stroke="none" stroke-width="2.0pt" />
<circle cx="139.608" cy="129.410" r="1.000" fill="#000000" stroke="none" stroke-width="2.0pt" />
<circle cx="147.402" cy="128.345" r="1.000" fill="#000000" stroke="none" stroke-width="2.0pt" />
<circle cx="154.870" cy="128.402" r="1.000" fill="#000000" stroke="none" stroke-width="2.0pt" />
<circle cx="161.861" cy="129.483" r="1.000" fill="#000000" stroke="none" stroke-width="2.0pt" />
<circle cx="168.242" cy="131.470" r="1.000" fill="#000000" stroke="none" stroke-width="2.0pt" />
<circle cx="173.906" cy="134.230" r="1.000" fill="#000000" stroke="none" stroke-width="2.0pt" />
<circle cx="178.766" cy="137.617" r="1.000" fill="#000000" stroke="none" stroke-width="2.0pt" />
<circle cx="182.764" cy="141.477" r="1.000" fill="#000000" stroke="none" stroke-width="2.0pt" />
<circle cx="185.865" cy="145.653" r="1.000" fill="#000000" stroke="none" stroke-width="2.0pt" />
<circle cx="188.061" cy="149.987" r="1.000" fill="#000000" stroke="none" stroke-width="2.0pt" />
<circle cx="189.370" cy="154.329" r="1.000" fill="#000000" stroke="none" stroke-width="2.0pt" />
<circle cx="189.829" cy="158.538" r="1.000" fill="#000000" stroke="none" stroke-width="2.0pt" />
<circle cx="181.626" cy="173.931" r="1.000" fill="#000000" stroke="none" stroke-width="2.0pt" />
<circle cx="189.496" cy="162.487" r="1.000" fill="#000000" stroke="none" stroke-width="2.0pt" />
<circle cx="184.472" cy="171.805" r="1.000" fill="#000000" stroke="none" stroke-width="2.0pt" />
<circle cx="188.442" cy="166.067" r="1.000" fill="#000000" stroke="none" stroke-width="2.0pt" />
<circle cx="186.745" cy="169.190" r="1.000" fill="#000000" stroke="none" stroke-width="2.0pt" />
</g>
</g>
<g id="ID000046" >
  <g transform="translate(61.009,331.845)">
    <g transform="rotate(-0.0)">
      <text x="0.000" y="0.000" font-family="Helvetica" text-anchor="start" font-size="12pt" font-weight="bold" fill="#000000" >dim = 50</text>
    </g>
  </g>
</g>
    </g>
    <g>
      <polyline fill="none" stroke="#000000" stroke-width="0.5pt" stroke-dasharray="none" points="112.273,339.727 112.273,337.194 "/>
      <polyline fill="none" stroke="#000000" stroke-width="0.5pt" stroke-dasharray="none" points="177.045,339.727 177.045,337.194 "/>
      <polyline fill="none" stroke="#000000" stroke-width="0.5pt" stroke-dasharray="none" points="241.818,339.727 241.818,337.194 "/>
      <polyline fill="none" stroke="#000000" stroke-width="0.5pt" stroke-dasharray="none" points="306.591,339.727 306.591,337.194 "/>
      <polyline fill="none" stroke="#000000" stroke-width="0.5pt" stroke-dasharray="none" points="371.364,339.727 371.364,337.194 "/>
      <polyline fill="none" stroke="#000000" stroke-width="0.5pt" stroke-dasharray="none" points="47.500,339.727 403.750,339.727 "/>
      <polyline fill="none" stroke="#000000" stroke-width="0.5pt" stroke-dasharray="none" points="112.273,113.023 112.273,115.556 "/>
      <polyline fill="none" stroke="#000000" stroke-width="0.5pt" stroke-dasharray="none" points="177.045,113.023 177.045,115.556 "/>
      <polyline fill="none" stroke="#000000" stroke-width="0.5pt" stroke-dasharray="none" points="241.818,113.023 241.818,115.556 "/>
      <polyline fill="none" stroke="#000000" stroke-width="0.5pt" stroke-dasharray="none" points="306.591,113.023 306.591,115.556 "/>
      <polyline fill="none" stroke="#000000" stroke-width="0.5pt" stroke-dasharray="none" points="371.364,113.023 371.364,115.556 "/>
      <polyline fill="none" stroke="#000000" stroke-width="0.5pt" stroke-dasharray="none" points="47.500,113.023 403.750,113.023 "/>
  <g transform="translate(47.500,356.061)">
    <g transform="rotate(-0.0)">
      <text x="0.000" y="0.000" font-family="Helvetica" text-anchor="middle" font-size="10pt" fill="#000000" >-4</text>
    </g>
  </g>
  <g transform="translate(112.273,356.061)">
    <g transform="rotate(-0.0)">
      <text x="0.000" y="0.000" font-family="Helvetica" text-anchor="middle" font-size="10pt" fill="#000000" >-2</text>
    </g>
  </g>
  <g transform="translate(177.045,356.061)">
    <g transform="rotate(-0.0)">
      <text x="0.000" y="0.000" font-family="Helvetica" text-anchor="middle" font-size="10pt" fill="#000000" >0</text>
    </g>
  </g>
  <g transform="translate(241.818,356.061)">
    <g transform="rotate(-0.0)">
      <text x="0.000" y="0.000" font-family="Helvetica" text-anchor="middle" font-size="10pt" fill="#000000" >2</text>
    </g>
  </g>
  <g transform="translate(306.591,356.061)">
    <g transform="rotate(-0.0)">
      <text x="0.000" y="0.000" font-family="Helvetica" text-anchor="middle" font-size="10pt" fill="#000000" >4</text>
    </g>
  </g>
  <g transform="translate(371.364,356.061)">
    <g transform="rotate(-0.0)">
      <text x="0.000" y="0.000" font-family="Helvetica" text-anchor="middle" font-size="10pt" fill="#000000" >6</text>
    </g>
  </g>
      <polyline fill="none" stroke="#000000" stroke-width="0.5pt" stroke-dasharray="none" points="47.500,307.341 51.062,307.341 "/>
      <polyline fill="none" stroke="#000000" stroke-width="0.5pt" stroke-dasharray="none" points="47.500,274.955 51.062,274.955 "/>
      <polyline fill="none" stroke="#000000" stroke-width="0.5pt" stroke-dasharray="none" points="47.500,242.568 51.062,242.568 "/>
      <polyline fill="none" stroke="#000000" stroke-width="0.5pt" stroke-dasharray="none" points="47.500,210.182 51.062,210.182 "/>
      <polyline fill="none" stroke="#000000" stroke-width="0.5pt" stroke-dasharray="none" points="47.500,177.795 51.062,177.795 "/>
      <polyline fill="none" stroke="#000000" stroke-width="0.5pt" stroke-dasharray="none" points="47.500,145.409 51.062,145.409 "/>
      <polyline fill="none" stroke="#000000" stroke-width="0.5pt" stroke-dasharray="none" points="47.500,339.727 47.500,113.023 "/>
      <polyline fill="none" stroke="#000000" stroke-width="0.5pt" stroke-dasharray="none" points="403.750,307.341 400.188,307.341 "/>
      <polyline fill="none" stroke="#000000" stroke-width="0.5pt" stroke-dasharray="none" points="403.750,274.955 400.188,274.955 "/>
      <polyline fill="none" stroke="#000000" stroke-width="0.5pt" stroke-dasharray="none" points="403.750,242.568 400.188,242.568 "/>
      <polyline fill="none" stroke="#000000" stroke-width="0.5pt" stroke-dasharray="none" points="403.750,210.182 400.188,210.182 "/>
      <polyline fill="none" stroke="#000000" stroke-width="0.5pt" stroke-dasharray="none" points="403.750,177.795 400.188,177.795 "/>
      <polyline fill="none" stroke="#000000" stroke-width="0.5pt" stroke-dasharray="none" points="403.750,145.409 400.188,145.409 "/>
      <polyline fill="none" stroke="#000000" stroke-width="0.5pt" stroke-dasharray="none" points="403.750,339.727 403.750,113.023 "/>
  <g transform="translate(40.375,344.227)">
    <g transform="rotate(-0.0)">
      <text x="0.000" y="0.000" font-family="Helvetica" text-anchor="end" font-size="10pt" fill="#000000" >-5</text>
    </g>
  </g>
  <g transform="translate(40.375,311.841)">
    <g transform="rotate(-0.0)">
      <text x="0.000" y="0.000" font-family="Helvetica" text-anchor="end" font-size="10pt" fill="#000000" >-4</text>
    </g>
  </g>
  <g transform="translate(40.375,279.455)">
    <g transform="rotate(-0.0)">
      <text x="0.000" y="0.000" font-family="Helvetica" text-anchor="end" font-size="10pt" fill="#000000" >-3</text>
    </g>
  </g>
  <g transform="translate(40.375,247.068)">
    <g transform="rotate(-0.0)">
      <text x="0.000" y="0.000" font-family="Helvetica" text-anchor="end" font-size="10pt" fill="#000000" >-2</text>
    </g>
  </g>
  <g transform="translate(40.375,214.682)">
    <g transform="rotate(-0.0)">
      <text x="0.000" y="0.000" font-family="Helvetica" text-anchor="end" font-size="10pt" fill="#000000" >-1</text>
    </g>
  </g>
  <g transform="translate(40.375,182.295)">
    <g transform="rotate(-0.0)">
      <text x="0.000" y="0.000" font-family="Helvetica" text-anchor="end" font-size="10pt" fill="#000000" >0</text>
    </g>
  </g>
  <g transform="translate(40.375,149.909)">
    <g transform="rotate(-0.0)">
      <text x="0.000" y="0.000" font-family="Helvetica" text-anchor="end" font-size="10pt" fill="#000000" >1</text>
    </g>
  </g>
  <g transform="translate(40.375,117.523)">
    <g transform="rotate(-0.0)">
      <text x="0.000" y="0.000" font-family="Helvetica" text-anchor="end" font-size="10pt" fill="#000000" >2</text>
    </g>
  </g>
      <polyline fill="none" stroke="#000000" stroke-width="0.5pt" stroke-dasharray="none" points="47.500,339.727 47.500,337.460 "/>
      <polyline fill="none" stroke="#000000" stroke-width="0.5pt" stroke-dasharray="none" points="47.500,339.727 47.500,339.727 "/>
    </g>
  </g>
  <g id ="ID000047">
  <clipPath id="ID000048">
    <rect x="423.529" y="61.235" width="40.235" height="334.588"/>
  </clipPath>
      <polygon fill="#ffffff" fill-opacity="1.00" stroke="none" stroke-width="0.5pt" stroke-opacity="1.00" stroke-dasharray="none" points="423.529,395.824 463.765,395.824 463.765,61.235 423.529,61.235 "/>
      <polygon fill="#ffffff" fill-opacity="1.00" stroke="none" stroke-width="0.5pt" stroke-opacity="1.00" stroke-dasharray="none" points="423.529,61.235 463.765,61.235 463.765,61.235 423.529,61.235 "/>
      <polygon fill="#ffffff" fill-opacity="1.00" stroke="none" stroke-width="0.5pt" stroke-opacity="1.00" stroke-dasharray="none" points="423.529,395.824 423.529,395.824 423.529,61.235 423.529,61.235 "/>
    <g>
<g id="ID000049" >
</g>
<g id="ID000050" >
</g>
<g id="ID000051" >
</g>
<g id="ID000052" clip-path="url(#ID000048)" >
      <polyline fill="none" stroke="#00ff19" stroke-width="5.0pt" stroke-dasharray="none" points="423.529,390.427 463.765,390.427 "/>
<g>
</g>
</g>
<g id="ID000053" clip-path="url(#ID000048)" >
      <polyline fill="none" stroke="#000000" stroke-width="0.5pt" stroke-dasharray="none" points="423.529,395.824 423.529,61.235 "/>
<g>
</g>
</g>
<g id="ID000054" clip-path="url(#ID000048)" >
      <polyline fill="none" stroke="#000000" stroke-width="0.5pt" stroke-dasharray="none" points="463.765,395.824 463.765,61.235 "/>
<g>
</g>
</g>
<g id="ID000055" clip-path="url(#ID000048)" >
      <polyline fill="none" stroke="#8d07ff" stroke-width="5.0pt" stroke-dasharray="none" points="423.529,282.495 463.765,282.495 "/>
<g>
</g>
</g>
<g id="ID000056" clip-path="url(#ID000048)" >
      <polyline fill="none" stroke="#000000" stroke-width="0.5pt" stroke-dasharray="none" points="423.529,395.824 423.529,61.235 "/>
<g>
</g>
</g>
<g id="ID000057" clip-path="url(#ID000048)" >
      <polyline fill="none" stroke="#000000" stroke-width="0.5pt" stroke-dasharray="none" points="463.765,395.824 463.765,61.235 "/>
<g>
</g>
</g>
<g id="ID000058" clip-path="url(#ID000048)" >
      <polyline fill="none" stroke="#c60000" stroke-width="5.0pt" stroke-dasharray="none" points="423.529,174.564 463.765,174.564 "/>
<g>
</g>
</g>
<g id="ID000059" clip-path="url(#ID000048)" >
      <polyline fill="none" stroke="#000000" stroke-width="0.5pt" stroke-dasharray="none" points="423.529,395.824 423.529,61.235 "/>
<g>
</g>
</g>
<g id="ID000060" clip-path="url(#ID000048)" >
      <polyline fill="none" stroke="#000000" stroke-width="0.5pt" stroke-dasharray="none" points="463.765,395.824 463.765,61.235 "/>
<g>
</g>
</g>
<g id="ID000061" clip-path="url(#ID000048)" >
      <polyline fill="none" stroke="#ff9900" stroke-width="5.0pt" stroke-dasharray="none" points="423.529,66.632 463.765,66.632 "/>
<g>
</g>
</g>
<g id="ID000062" clip-path="url(#ID000048)" >
      <polyline fill="none" stroke="#000000" stroke-width="0.5pt" stroke-dasharray="none" points="423.529,395.824 423.529,61.235 "/>
<g>
</g>
</g>
<g id="ID000063" clip-path="url(#ID000048)" >
      <polyline fill="none" stroke="#000000" stroke-width="0.5pt" stroke-dasharray="none" points="463.765,395.824 463.765,61.235 "/>
<g>
</g>
</g>
    </g>
    <g>
      <polyline fill="none" stroke="#000000" stroke-width="0.5pt" stroke-dasharray="none" points="423.529,395.824 463.765,395.824 "/>
      <polyline fill="none" stroke="#000000" stroke-width="0.5pt" stroke-dasharray="none" points="423.529,61.235 463.765,61.235 "/>
      <polyline fill="none" stroke="#000000" stroke-width="0.5pt" stroke-dasharray="none" points="463.765,390.427 460.419,390.427 "/>
      <polyline fill="none" stroke="#000000" stroke-width="0.5pt" stroke-dasharray="none" points="463.765,282.495 460.419,282.495 "/>
      <polyline fill="none" stroke="#000000" stroke-width="0.5pt" stroke-dasharray="none" points="463.765,174.564 460.419,174.564 "/>
      <polyline fill="none" stroke="#000000" stroke-width="0.5pt" stroke-dasharray="none" points="463.765,66.632 460.419,66.632 "/>
      <polyline fill="none" stroke="#000000" stroke-width="0.5pt" stroke-dasharray="none" points="463.765,395.824 463.765,61.235 "/>
      <polyline fill="none" stroke="#000000" stroke-width="0.5pt" stroke-dasharray="none" points="423.529,390.427 426.875,390.427 "/>
      <polyline fill="none" stroke="#000000" stroke-width="0.5pt" stroke-dasharray="none" points="423.529,282.495 426.875,282.495 "/>
      <polyline fill="none" stroke="#000000" stroke-width="0.5pt" stroke-dasharray="none" points="423.529,174.564 426.875,174.564 "/>
      <polyline fill="none" stroke="#000000" stroke-width="0.5pt" stroke-dasharray="none" points="423.529,66.632 426.875,66.632 "/>
      <polyline fill="none" stroke="#000000" stroke-width="0.5pt" stroke-dasharray="none" points="423.529,395.824 423.529,61.235 "/>
  <g transform="translate(464.569,394.927)">
    <g transform="rotate(-0.0)">
      <text x="0.000" y="0.000" font-family="Helvetica" text-anchor="start" font-size="10pt" fill="#000000" >-2.5</text>
    </g>
  </g>
  <g transform="translate(464.569,286.995)">
    <g transform="rotate(-0.0)">
      <text x="0.000" y="0.000" font-family="Helvetica" text-anchor="start" font-size="10pt" fill="#000000" >-2</text>
    </g>
  </g>
  <g transform="translate(464.569,179.064)">
    <g transform="rotate(-0.0)">
      <text x="0.000" y="0.000" font-family="Helvetica" text-anchor="start" font-size="10pt" fill="#000000" >-1.5</text>
    </g>
  </g>
  <g transform="translate(464.569,71.132)">
    <g transform="rotate(-0.0)">
      <text x="0.000" y="0.000" font-family="Helvetica" text-anchor="start" font-size="10pt" fill="#000000" >-1</text>
    </g>
  </g>
      <polyline fill="none" stroke="#000000" stroke-width="0.5pt" stroke-dasharray="none" points="423.529,395.824 423.529,392.478 "/>
      <polyline fill="none" stroke="#000000" stroke-width="0.5pt" stroke-dasharray="none" points="423.529,395.824 423.529,395.824 "/>
    </g>
  </g>
<image x="517.500" y="374.875" width="120.000" height="15.875" image-rendering="optimizeSpeed" xlink:href="logo015.png" />
<image x="587.647" y="384.206" width="38.750" height="27.500" image-rendering="optimizeSpeed" xlink:href="logo016.png" />
<image x="518.824" y="391.066" width="63.529" height="19.059" image-rendering="optimizeSpeed" xlink:href="logo017.png" />
<image x="26.471" y="432.882" width="127.059" height="15.882" image-rendering="optimizeSpeed" xlink:href="logo018.png" />
<image x="42.353" y="455.118" width="142.941" height="25.412" image-rendering="optimizeSpeed" xlink:href="logo019.png" />
<image x="79.375" y="514.500" width="62.500" height="26.250" image-rendering="optimizeSpeed" xlink:href="logo020.png" />
<image x="206.471" y="514.500" width="62.500" height="26.250" image-rendering="optimizeSpeed" xlink:href="logo021.png" />
<image x="142.941" y="545.750" width="62.500" height="26.250" image-rendering="optimizeSpeed" xlink:href="logo022.png" />
<image x="142.941" y="487.000" width="62.500" height="26.250" image-rendering="optimizeSpeed" xlink:href="logo023.png" />
<image x="26.471" y="520.441" width="49.765" height="19.059" image-rendering="optimizeSpeed" xlink:href="logo024.png" />
<image x="153.529" y="518.324" width="49.765" height="21.176" image-rendering="optimizeSpeed" xlink:href="logo025.png" />
<image x="90.000" y="551.691" width="49.765" height="19.059" image-rendering="optimizeSpeed" xlink:href="logo026.png" />
<image x="90.000" y="492.941" width="49.765" height="19.059" image-rendering="optimizeSpeed" xlink:href="logo027.png" />
<image x="291.176" y="432.882" width="102.500" height="15.882" image-rendering="optimizeSpeed" xlink:href="logo028.png" />
<image x="293.750" y="450.338" width="118.750" height="27.912" image-rendering="optimizeSpeed" xlink:href="logo029.png" />
<image x="293.750" y="477.838" width="118.750" height="27.912" image-rendering="optimizeSpeed" xlink:href="logo030.png" />
<image x="300.000" y="516.118" width="66.250" height="15.882" image-rendering="optimizeSpeed" xlink:href="logo031.png" />
<image x="368.750" y="511.265" width="37.500" height="27.500" image-rendering="optimizeSpeed" xlink:href="logo032.png" />
<image x="301.764" y="545.118" width="105.000" height="25.412" image-rendering="optimizeSpeed" xlink:href="logo033.png" />
<image x="443.647" y="454.059" width="128.118" height="26.471" image-rendering="optimizeSpeed" xlink:href="logo034.png" />
<image x="428.824" y="432.882" width="185.294" height="15.882" image-rendering="optimizeSpeed" xlink:href="logo035.png" />
<image x="556.250" y="487.625" width="62.500" height="26.875" image-rendering="optimizeSpeed" xlink:href="logo036.png" />
<image x="556.250" y="517.625" width="62.500" height="26.875" image-rendering="optimizeSpeed" xlink:href="logo037.png" />
<image x="556.250" y="547.625" width="62.500" height="26.875" image-rendering="optimizeSpeed" xlink:href="logo038.png" />
<image x="434.118" y="492.074" width="116.471" height="21.176" image-rendering="optimizeSpeed" xlink:href="logo039.png" />
<image x="434.118" y="522.074" width="116.471" height="21.176" image-rendering="optimizeSpeed" xlink:href="logo040.png" />
<image x="434.118" y="552.074" width="116.471" height="21.176" image-rendering="optimizeSpeed" xlink:href="logo041.png" />
  </g>
</svg>
